<svg width="88" height="30" viewBox="0 0 88 30" fill="none" xmlns="http://www.w3.org/2000/svg">
<path d="M84.9257 10.0139C84.2017 9.06694 83.2739 8.30058 82.2133 7.77338C81.1526 7.24618 79.9873 6.9721 78.8062 6.9721C77.6252 6.9721 76.4598 7.24618 75.3992 7.77338C74.3385 8.30058 73.4108 9.06694 72.6868 10.0139C71.7164 11.4187 71.2075 13.0984 71.2323 14.8139C71.2075 16.5293 71.7164 18.209 72.6868 19.6138C73.4108 20.5608 74.3385 21.3271 75.3992 21.8543C76.4598 22.3815 77.6252 22.6556 78.8062 22.6556C79.9873 22.6556 81.1526 22.3815 82.2133 21.8543C83.2739 21.3271 84.2017 20.5608 84.9257 19.6138C85.8957 18.2088 86.4046 16.5292 86.3801 14.8139C86.4046 13.0985 85.8957 11.4189 84.9257 10.0139ZM82.5015 16.6139C81.9458 18.2999 80.6273 19.6138 78.8003 19.6558C76.9734 19.6978 75.6549 18.2999 75.105 16.6139C74.7117 15.447 74.7117 14.1807 75.105 13.0139C75.6608 11.3279 76.9793 10.0139 78.8003 9.97185C80.6214 9.92985 81.9458 11.3279 82.5015 13.0139C82.893 14.1789 82.893 15.4428 82.5015 16.6079V16.6139ZM26.7762 22.2539C26.7762 22.3716 26.7301 22.4845 26.6481 22.5678C26.566 22.6511 26.4547 22.6979 26.3387 22.6979H23.7963C23.6803 22.6979 23.569 22.6511 23.4869 22.5678C23.4049 22.4845 23.3588 22.3716 23.3588 22.2539V1.04385C23.3588 0.926097 23.4049 0.813164 23.4869 0.729898C23.569 0.646632 23.6803 0.599854 23.7963 0.599854H26.3387C26.4547 0.599854 26.566 0.646632 26.6481 0.729898C26.7301 0.813164 26.7762 0.926097 26.7762 1.04385V22.2539ZM20.8046 22.2539C20.8046 22.3716 20.7585 22.4845 20.6764 22.5678C20.5944 22.6511 20.4831 22.6979 20.3671 22.6979H17.8247C17.7087 22.6979 17.5974 22.6511 17.5153 22.5678C17.4333 22.4845 17.3872 22.3716 17.3872 22.2539V1.04385C17.3872 0.92713 17.4324 0.815096 17.5132 0.732C17.594 0.648905 17.7038 0.601431 17.8188 0.599854H20.3612C20.4772 0.599854 20.5885 0.646632 20.6705 0.729898C20.7526 0.813164 20.7987 0.926097 20.7987 1.04385V22.2539H20.8046ZM70.6588 7.85385V9.65385C70.6691 9.73154 70.66 9.8106 70.6323 9.88378C70.6046 9.95696 70.5593 10.0219 70.5004 10.0727C70.4416 10.1235 70.3711 10.1584 70.2954 10.1743C70.2198 10.1903 70.1414 10.1867 70.0676 10.1639C67.1941 9.56385 65.4262 10.8599 65.4262 13.5539V22.2539C65.4262 22.3716 65.3801 22.4845 65.2981 22.5678C65.216 22.6511 65.1048 22.6979 64.9887 22.6979H62.4463C62.3303 22.6979 62.219 22.6511 62.137 22.5678C62.0549 22.4845 62.0088 22.3716 62.0088 22.2539V13.3679C61.9935 12.5273 62.1525 11.6929 62.4754 10.9188C62.7983 10.1446 63.2779 9.44788 63.8831 8.87385C65.1259 7.64073 66.7981 6.95508 68.5362 6.96585C69.1312 6.96747 69.7249 7.0237 70.31 7.13385C70.6115 7.23585 70.6588 7.41585 70.6588 7.87785V7.85385ZM59.7739 14.8079C59.8061 13.0914 59.2965 11.4094 58.3194 10.0079C57.5954 9.06094 56.6676 8.29458 55.607 7.76738C54.5464 7.24018 53.381 6.9661 52.2 6.9661C51.0189 6.9661 49.8536 7.24018 48.7929 7.76738C47.7323 8.29458 46.8045 9.06094 46.0805 10.0079C45.1197 11.4186 44.605 13.0929 44.605 14.8079C44.605 16.5228 45.1197 18.1971 46.0805 19.6079C46.7929 20.5676 47.7183 21.3433 48.7816 21.8719C49.8449 22.4004 51.0161 22.667 52.2 22.6499C53.7506 22.655 55.2676 22.1913 56.5575 21.3179V23.2139C56.5575 25.7878 54.3403 26.2558 52.9213 26.3458C51.9449 26.3786 50.9676 26.3244 50.0005 26.1838C49.6103 26.1238 49.3383 26.1838 49.3383 26.6098V28.8899C49.3406 28.9411 49.3528 28.9914 49.3743 29.0378C49.3957 29.0842 49.426 29.1259 49.4633 29.1605C49.5007 29.195 49.5443 29.2218 49.5919 29.2392C49.6394 29.2566 49.6899 29.2643 49.7404 29.2618C53.0336 29.5498 55.2508 29.4898 56.9181 28.5238C58.0862 27.8229 58.9532 26.7033 59.3482 25.3859C59.6431 24.3693 59.7847 23.3134 59.768 22.2539V14.8079H59.7739ZM52.2 19.6439C50.373 19.6439 49.0545 18.2879 48.4987 16.6019C48.1055 15.435 48.1055 14.1687 48.4987 13.0019C49.0545 11.3159 50.373 9.95985 52.2 9.95985C56.2855 9.95985 56.4215 14.1899 56.4215 14.8019C56.4215 15.4139 56.2855 19.6439 52.2 19.6439ZM15.0576 13.2539C15.0576 11.2079 14.6083 9.65385 13.6386 8.57985C12.669 7.50585 10.7179 6.97185 8.90864 6.97185C7.09258 6.96464 5.30723 7.44709 3.7352 8.36985C3.68599 8.39938 3.64533 8.44155 3.6173 8.49212C3.58927 8.54268 3.57488 8.59984 3.57556 8.65785L3.71155 10.9139C3.72363 10.984 3.75387 11.0497 3.79918 11.1041C3.84449 11.1585 3.90323 11.1998 3.9694 11.2236C4.03557 11.2474 4.10679 11.2529 4.17576 11.2396C4.24473 11.2263 4.30898 11.1946 4.36192 11.1479C6.57911 9.76185 9.23974 9.50385 10.5937 10.1999C10.9662 10.4177 11.2731 10.7345 11.4815 11.1161C11.6898 11.4978 11.7917 11.9298 11.7762 12.3659V12.6959H8.08089C6.49042 12.6959 1.61852 13.2959 1.61852 17.8379V17.8859C1.58061 18.577 1.7038 19.2675 1.97808 19.9014C2.25236 20.5352 2.67002 21.0945 3.19716 21.5338C4.34862 22.357 5.74051 22.7609 7.14671 22.6798H14.626C14.7421 22.6798 14.8534 22.6331 14.9354 22.5498C15.0175 22.4665 15.0636 22.3536 15.0636 22.2359V13.2359L15.0576 13.2539ZM11.7762 19.9079H7.35956C6.79289 19.8914 6.24531 19.6963 5.79275 19.3498C5.55996 19.184 5.37084 18.9626 5.24198 18.7053C5.11312 18.448 5.04847 18.1625 5.05369 17.8739C5.05369 17.0639 5.59172 15.4439 8.28191 15.4439H11.7762V19.9079ZM36.1357 6.97185C31.6126 6.97185 29.632 10.0499 28.9993 12.6539C28.8253 13.3562 28.7379 14.0777 28.7392 14.8019C28.7147 16.5172 29.2237 18.1968 30.1936 19.6018C30.9185 20.5478 31.8465 21.3135 32.9069 21.8406C33.9673 22.3678 35.1323 22.6425 36.3131 22.6439C38.7549 22.7339 40.3868 22.3139 41.6343 21.5939C41.756 21.5142 41.8499 21.3978 41.903 21.2611C41.956 21.1244 41.9655 20.9743 41.93 20.8319V18.8339C41.93 18.4258 41.6875 18.2339 41.3387 18.4799C39.8785 19.4295 38.1455 19.8523 36.4195 19.6798C35.4366 19.6667 34.4923 19.2891 33.7648 18.6182C33.0372 17.9473 32.5767 17.0295 32.47 16.0379H42.5212C42.63 16.0379 42.7343 15.9944 42.8118 15.917C42.8892 15.8395 42.9335 15.7342 42.9351 15.6239C43.1125 12.8339 42.3143 6.97185 36.1357 6.97185ZM32.5232 13.2779C32.5435 12.8185 32.6537 12.3679 32.8472 11.9522C33.0408 11.5365 33.3138 11.164 33.6505 10.8563C33.9873 10.5487 34.3809 10.3121 34.8086 10.1602C35.2362 10.0084 35.6894 9.94434 36.1416 9.97185C36.5745 9.94497 37.008 10.0124 37.413 10.1696C37.818 10.3268 38.1852 10.5702 38.4899 10.8834C38.7946 11.1965 39.0297 11.5722 39.1794 11.9852C39.3291 12.3982 39.39 12.839 39.358 13.2779H32.5232Z" fill="#FF5A00"/>
</svg>
