<svg width="92" height="29" viewBox="0 0 92 29" fill="none" xmlns="http://www.w3.org/2000/svg">
<path fill-rule="evenodd" clip-rule="evenodd" d="M57.0292 22.4923C51.7109 26.4247 43.9751 28.5198 37.3029 28.5198C27.9555 28.5198 19.5751 25.0709 13.1931 19.3336C12.7096 18.8823 13.1286 18.2699 13.741 18.6244C20.6065 22.6213 29.0837 25.0065 37.8509 25.0065C43.7494 25.0065 50.2604 23.7816 56.2556 21.2353C57.1581 20.8807 57.8995 21.8477 57.0292 22.4923Z" fill="black"/>
<path fill-rule="evenodd" clip-rule="evenodd" d="M59.2546 19.9475C58.5777 19.0772 54.7421 19.5284 53.0338 19.7541C52.518 19.8185 52.4213 19.3673 52.9048 19.045C55.9669 16.8854 60.9629 17.53 61.5431 18.2391C62.1233 18.9483 61.382 23.9765 58.5133 26.3617C58.062 26.7163 57.643 26.5229 57.8364 26.0394C58.481 24.4278 59.9315 20.85 59.2546 19.9475Z" fill="white"/>
<path fill-rule="evenodd" clip-rule="evenodd" d="M53.1298 3.89508V1.79997C53.1298 1.47765 53.3555 1.28425 53.6455 1.28425H62.993C63.2831 1.28425 63.5409 1.50988 63.5409 1.79997V3.57276C63.5409 3.86285 63.2831 4.24964 62.8318 4.89429L57.9969 11.792C59.8019 11.7598 61.7037 12.0177 63.3153 12.9202C63.6698 13.1136 63.7665 13.4359 63.7988 13.726V15.95C63.7988 16.2723 63.4765 16.6269 63.1219 16.4335C60.2532 14.9186 56.4175 14.7574 53.2588 16.4657C52.9364 16.6269 52.5819 16.3046 52.5819 15.9823V13.8549C52.5819 13.5326 52.5819 12.9524 52.9364 12.4367L58.5449 4.4108H53.6778C53.3877 4.4108 53.1298 4.18518 53.1298 3.89508ZM19.0601 16.8848H16.2237C15.9658 16.8525 15.7402 16.6591 15.7079 16.4013V1.83221C15.7079 1.54212 15.9658 1.31649 16.2559 1.31649H18.899C19.1891 1.31649 19.3824 1.54211 19.4147 1.79997V3.70169H19.4791C20.156 1.86444 21.4776 0.994162 23.2181 0.994162C24.9909 0.994162 26.119 1.86444 26.8926 3.70169C27.5695 1.86444 29.1489 0.994162 30.825 0.994162C32.0176 0.994162 33.3069 1.47765 34.1127 2.60579C35.0152 3.83062 34.8218 5.60341 34.8218 7.1828V16.4013C34.8218 16.6914 34.5639 16.917 34.2738 16.917H31.4696C31.1795 16.8848 30.9539 16.6591 30.9539 16.4013V8.66548C30.9539 8.05307 31.0184 6.50591 30.8894 5.92572C30.6638 4.95875 30.0514 4.66866 29.2133 4.66866C28.5365 4.66866 27.7951 5.11992 27.505 5.86127C27.2149 6.60261 27.2472 7.82744 27.2472 8.66548V16.4013C27.2472 16.6914 26.9893 16.917 26.6992 16.917H23.8628C23.5727 16.8848 23.347 16.6591 23.347 16.4013V8.66548C23.347 7.05386 23.6049 4.63643 21.6065 4.63643C19.5758 4.63643 19.6403 6.95716 19.6403 8.66548V16.4013C19.6081 16.6591 19.3824 16.8848 19.0601 16.8848ZM71.599 0.994162C75.8215 0.994162 78.11 4.6042 78.11 9.21344C78.11 13.6615 75.5959 17.2071 71.599 17.2071C67.4733 17.2071 65.217 13.5971 65.217 9.08451C65.1848 4.53973 67.4733 0.994162 71.599 0.994162ZM71.599 3.99178C69.5039 3.99178 69.375 6.86047 69.375 8.63326C69.375 10.406 69.3428 14.2095 71.5668 14.2095C73.7586 14.2095 73.8875 11.1474 73.8875 9.27791C73.8875 8.05307 73.8231 6.57038 73.4685 5.41001C73.1462 4.37857 72.5015 3.99178 71.599 3.99178ZM83.5573 16.8848H80.7208C80.4307 16.8525 80.2051 16.6269 80.2051 16.3691V1.76774C80.2373 1.50988 80.463 1.28425 80.753 1.28425H83.3961C83.654 1.28425 83.8474 1.47765 83.9118 1.70328V3.92732H83.9763C84.7821 1.92891 85.878 0.994162 87.8442 0.994162C89.1013 0.994162 90.3583 1.44541 91.1641 2.70248C91.9055 3.86285 91.9055 5.82903 91.9055 7.24726V16.4335C91.8732 16.6914 91.6476 16.8848 91.3575 16.8848H88.5211C88.2632 16.8525 88.0376 16.6591 88.0053 16.4335V8.50432C88.0053 6.8927 88.1987 4.57197 86.2326 4.57197C85.5557 4.57197 84.911 5.02322 84.5887 5.73234C84.2019 6.63485 84.1375 7.50512 84.1375 8.50432V16.3691C84.1052 16.6591 83.8474 16.8848 83.5573 16.8848ZM45.6841 9.92256C45.6841 11.0185 45.7164 11.9532 45.1684 12.9524C44.7172 13.7582 44.008 14.2417 43.2022 14.2417C42.1063 14.2417 41.4617 13.4037 41.4617 12.1788C41.4617 9.7614 43.6213 9.31013 45.6841 9.31013V9.92256ZM48.5528 16.8525C48.3594 17.0137 48.1016 17.0459 47.8759 16.917C46.9412 16.1434 46.7478 15.7566 46.2321 15.0153C44.6849 16.5947 43.5568 17.0782 41.5584 17.0782C39.1732 17.0782 37.3037 15.5955 37.3037 12.6623C37.3037 10.3416 38.5608 8.79441 40.3335 8.02083C41.8807 7.34395 44.0403 7.21503 45.6841 7.02164V6.66708C45.6841 5.9902 45.7486 5.18439 45.3296 4.6042C44.975 4.08848 44.3304 3.86285 43.7502 3.86285C42.6543 3.86285 41.6873 4.41081 41.4617 5.57118C41.3972 5.82904 41.2361 6.08689 40.9782 6.08689L38.2384 5.7968C38.0128 5.73233 37.755 5.57117 37.8194 5.21662C38.4641 1.86444 41.4617 0.865234 44.1692 0.865234C45.5552 0.865234 47.3602 1.21979 48.4561 2.28346C49.8421 3.57276 49.7132 5.31332 49.7132 7.1828V11.5986C49.7132 12.9202 50.2611 13.5004 50.7769 14.2417C50.9703 14.4996 51.0025 14.8219 50.7769 14.983C50.1644 15.4665 49.133 16.3691 48.5528 16.8525ZM8.45564 9.92256C8.45564 11.0185 8.48787 11.9532 7.93992 12.9524C7.48867 13.7582 6.77955 14.2417 5.97374 14.2417C4.87784 14.2417 4.23319 13.4037 4.23319 12.1788C4.23319 9.7614 6.39277 9.31013 8.45564 9.31013V9.92256ZM11.2921 16.8525C11.0987 17.0137 10.8408 17.0459 10.6152 16.917C9.68048 16.1434 9.48708 15.7566 8.97136 15.0153C7.4242 16.5947 6.29606 17.0782 4.29765 17.0782C1.91245 17.0782 0.0429688 15.5955 0.0429688 12.6623C0.0429688 10.3416 1.30003 8.79441 3.07282 8.02083C4.61998 7.34395 6.77955 7.21503 8.42341 7.02164V6.66708C8.42341 5.9902 8.48787 5.18439 8.06885 4.6042C7.71429 4.08848 7.06964 3.86285 6.48946 3.86285C5.39356 3.86285 4.42658 4.41081 4.20095 5.57118C4.13649 5.82904 3.97533 6.08689 3.71747 6.08689L0.977708 5.7968C0.752081 5.73233 0.494225 5.57117 0.55869 5.21662C1.20334 1.86444 4.20096 0.865234 6.90848 0.865234C8.29448 0.865234 10.0995 1.21979 11.1954 2.28346C12.5814 3.57276 12.4525 5.31332 12.4525 7.1828V11.5986C12.4525 12.9202 13.0004 13.5004 13.5161 14.2417C13.7095 14.4996 13.7418 14.8219 13.5161 14.983C12.9037 15.4665 11.8723 16.3691 11.2921 16.8525Z" fill="black"/>
</svg>
