<svg width="105" height="20" viewBox="0 0 105 20" fill="none" xmlns="http://www.w3.org/2000/svg">
<path d="M0.0541992 0.111084H7.74433C9.20912 0.111084 10.3077 0.485797 11.1215 1.11032C12.0166 1.85975 12.5049 2.94225 12.5049 4.27456C12.5049 5.81505 11.8946 6.77265 10.6739 7.35554V7.43881C12.3015 7.98006 13.2373 9.47892 13.2373 11.2692C13.2373 12.9762 12.5863 14.3086 11.5284 15.1412C10.6332 15.8074 9.49394 16.0989 7.94778 16.0989H0.0541992V0.111084ZM6.97125 6.35631C7.78502 6.35631 8.39535 5.89832 8.39535 4.94072C8.39535 4.02476 7.78502 3.56677 6.93056 3.56677H4.28581V6.31467H6.97125V6.35631ZM7.33745 12.5599C8.27329 12.5599 8.96499 11.977 8.96499 10.9361C8.96499 9.81199 8.2326 9.31238 7.33745 9.31238H4.3265V12.6015H7.33745V12.5599ZM13.929 0.111084H17.9572V16.1405H13.929V0.111084ZM18.7709 10.4365C18.7709 6.81429 21.0495 4.39947 24.5894 4.39947C28.1293 4.39947 30.3672 6.85592 30.3672 10.4365C30.3672 14.0587 28.1293 16.4736 24.5894 16.4736C21.0495 16.4736 18.7709 14.0587 18.7709 10.4365ZM26.339 10.4365C26.339 8.43804 25.7287 7.189 24.508 7.189C23.2874 7.189 22.7177 8.43804 22.7177 10.4365C22.7177 12.435 23.2874 13.7257 24.508 13.7257C25.7287 13.684 26.339 12.435 26.339 10.4365ZM30.8147 10.4365C30.8147 6.81429 33.0933 4.39947 36.6332 4.39947C40.1731 4.39947 42.3703 6.81429 42.3703 10.4365C42.3703 14.0587 40.1324 16.4736 36.5925 16.4736C33.0933 16.4736 30.8147 14.0587 30.8147 10.4365ZM38.3828 10.4365C38.3828 8.43804 37.7725 7.189 36.5518 7.189C35.3312 7.189 34.7615 8.43804 34.7615 10.4365C34.7615 12.435 35.3312 13.7257 36.5518 13.7257C37.7725 13.684 38.3828 12.435 38.3828 10.4365ZM43.1841 4.69091H46.9274V6.39794H47.0088C47.7412 5.06563 48.7584 4.35783 50.3859 4.35783C51.81 4.35783 52.8679 5.06563 53.3969 6.31467H53.4783C54.3734 4.81582 55.5534 4.35783 56.9368 4.35783C59.5409 4.35783 60.6394 6.31467 60.6394 8.93766V16.0989H56.7333V9.64545C56.7333 8.47968 56.3671 7.73025 55.3906 7.73025C54.4141 7.73025 53.9258 8.64622 53.9258 9.89526V16.0989H50.0197V9.64545C50.0197 8.47968 49.6535 7.73025 48.677 7.73025C47.7005 7.73025 47.2122 8.64622 47.2122 9.89526V16.0989H43.1841V4.69091ZM65.5628 14.6H65.5221V16.0989H61.7787V0.111084H65.6848V5.85669H65.7662C66.4986 4.85745 67.5158 4.3162 68.9399 4.3162C71.7474 4.3162 73.375 6.89756 73.375 10.3532C73.375 14.2253 71.6254 16.4736 68.6958 16.4736C67.4751 16.4736 66.2138 15.8907 65.5628 14.6ZM69.3468 10.3116C69.3468 8.47968 68.6958 7.27227 67.5158 7.27227C66.2952 7.27227 65.5628 8.47968 65.5628 10.3116C65.5628 12.1435 66.3358 13.351 67.5158 13.351C68.6958 13.351 69.3468 12.1852 69.3468 10.3116ZM73.8225 10.3949C73.8225 6.81429 76.1418 4.35783 79.4782 4.35783C81.1465 4.35783 82.4078 4.89909 83.3843 5.85669C84.6864 7.14737 85.256 9.14584 85.2153 11.4774H77.7286C77.8914 12.893 78.5424 13.6424 79.7224 13.6424C80.4141 13.6424 81.0244 13.3093 81.2685 12.5599H85.0526C84.4016 15.1829 82.4078 16.4736 79.6003 16.4736C76.1418 16.4319 73.8225 14.0171 73.8225 10.3949ZM77.7286 9.18747H81.3092C81.2279 7.81352 80.4955 7.10573 79.5596 7.10573C78.461 7.0641 77.8507 7.85516 77.7286 9.18747ZM89.6504 6.64775H89.7318C90.5455 5.06563 91.6034 4.4411 92.9462 4.4411C93.2717 4.4411 93.4751 4.48274 93.5972 4.56601V8.06333H93.5158C91.1965 7.64698 89.8538 8.77112 89.8538 11.3525V16.1405H85.907V4.69091H89.6504V6.64775ZM94.0041 16.1405H97.7881C97.9508 16.6401 98.4391 17.0981 99.3749 17.0981C100.636 17.0981 101.084 16.307 101.084 15.0996V14.2669H101.002C100.392 15.0163 99.5377 15.5576 98.317 15.5576C95.9164 15.5576 93.8006 13.7257 93.8006 10.1451C93.8006 6.85592 95.5095 4.3162 98.1136 4.3162C99.6191 4.3162 100.514 4.94072 101.125 5.89832H101.206V4.64928H104.949V14.5584C104.949 16.3903 104.339 17.8059 103.403 18.6386C102.427 19.5129 101.043 19.8876 99.4563 19.8876C96.4454 19.9293 94.3702 18.6802 94.0041 16.1405ZM101.247 9.97853C101.247 8.56295 100.596 7.39718 99.4563 7.39718C98.3577 7.39718 97.666 8.39641 97.666 9.97853C97.666 11.519 98.3577 12.6015 99.4563 12.6015C100.555 12.6015 101.247 11.4774 101.247 9.97853Z" fill="black"/>
</svg>
