<svg width="18" height="18" viewBox="0 0 18 18" fill="none" xmlns="http://www.w3.org/2000/svg">
<g clip-path="url(#clip0_231_523)">
<path fill-rule="evenodd" clip-rule="evenodd" d="M11.7473 2.83008C10.4177 2.23765 8.93223 2.09089 7.51243 2.41168C6.09263 2.73246 4.81456 3.5036 3.86884 4.6101C2.92312 5.7166 2.36041 7.09916 2.26463 8.55159C2.16886 10.004 2.54516 11.4485 3.3374 12.6696C4.12964 13.8907 5.29539 14.823 6.66077 15.3274C8.02615 15.8319 9.51802 15.8814 10.9139 15.4687C12.3097 15.056 13.5348 14.2031 14.4063 13.0373C15.2778 11.8715 15.7492 10.4552 15.75 8.99958V8.31001C15.75 7.89579 16.0858 7.56001 16.5 7.56001C16.9142 7.56001 17.25 7.89579 17.25 8.31001V9.00001C17.249 10.7791 16.6729 12.5105 15.6077 13.9354C14.5425 15.3603 13.0452 16.4027 11.3392 16.9072C9.63313 17.4116 7.80974 17.351 6.14094 16.7345C4.47214 16.1179 3.04734 14.9785 2.07904 13.486C1.11074 11.9936 0.650828 10.2281 0.767883 8.45289C0.884939 6.6777 1.5727 4.9879 2.72858 3.63552C3.88447 2.28314 5.44655 1.34062 7.18186 0.948555C8.91716 0.556485 10.7327 0.735862 12.3578 1.45993C12.7361 1.62852 12.9062 2.0719 12.7376 2.45026C12.569 2.82861 12.1256 2.99866 11.7473 2.83008Z" fill="white"/>
<path fill-rule="evenodd" clip-rule="evenodd" d="M17.0301 2.46941C17.3231 2.76216 17.3233 3.23703 17.0306 3.53007L9.5306 11.0376C9.38997 11.1783 9.19917 11.2575 9.00019 11.2575C8.80122 11.2576 8.61037 11.1785 8.46967 11.0378L6.21967 8.78784C5.92678 8.49494 5.92678 8.02007 6.21967 7.72718C6.51257 7.43428 6.98744 7.43428 7.28033 7.72718L8.99974 9.44658L15.9694 2.46994C16.2622 2.1769 16.737 2.17666 17.0301 2.46941Z" fill="white"/>
</g>
<defs>
<clipPath id="clip0_231_523">
<rect width="18" height="18" fill="white"/>
</clipPath>
</defs>
</svg>
