<svg width="111" height="20" viewBox="0 0 111 20" fill="none" xmlns="http://www.w3.org/2000/svg">
<g clip-path="url(#clip0_1_975)">
<rect width="111" height="20" fill="white"/>
<path d="M98.2705 0.52832H96.4608C96.3511 0.52832 96.2601 0.622399 96.2601 0.735939V9.48844C96.2601 12.5412 95.0957 14.0237 92.6937 14.0237C90.3206 14.0237 89.1679 12.5412 89.1679 9.48844V0.735939C89.1679 0.622399 89.0776 0.52832 88.9679 0.52832H87.1581C87.0485 0.52832 86.9575 0.622399 86.9575 0.735939V9.38144C86.9575 13.8161 88.9397 16.1615 92.6909 16.1615C96.4704 16.1615 98.465 13.8161 98.465 9.38144V0.735939C98.4677 0.622399 98.3802 0.52832 98.2705 0.52832Z" fill="black"/>
<path d="M105.699 3.68555C104.287 3.68555 103.079 4.23704 102.196 5.28163L102.03 3.99373C102.017 3.88993 101.933 3.81531 101.832 3.81531H100.355C100.245 3.81531 100.154 3.90939 100.154 4.02293V19.3123C100.154 19.4258 100.245 19.5199 100.355 19.5199H102.061C102.171 19.5199 102.262 19.4258 102.262 19.3123V13.9466C103.048 14.8516 104.263 15.348 105.703 15.348C108.822 15.348 111.001 12.9506 111.001 9.51513C110.998 5.97262 108.918 3.68555 105.699 3.68555ZM108.85 9.51842C108.85 11.8184 107.516 13.3626 105.534 13.3626C103.561 13.3626 102.236 11.799 102.236 9.47299C102.236 7.23456 103.593 5.67093 105.534 5.67093C107.519 5.67093 108.85 7.21835 108.85 9.51842Z" fill="black"/>
<path d="M41.2506 2.19864C43.3862 2.19864 44.9079 3.36002 45.4277 5.38757C45.4496 5.4784 45.531 5.54004 45.6218 5.54004H47.4317C47.4912 5.54004 47.5476 5.51408 47.5852 5.46543C47.6227 5.42 47.6384 5.35837 47.629 5.29673C47.0685 2.06888 44.6574 0.060791 41.3352 0.060791C37.0579 0.060791 34.1865 3.23025 34.1865 7.94389C34.1865 12.7322 36.9921 15.8237 41.3352 15.8237C44.6449 15.8237 47.0497 13.8189 47.6071 10.5878C47.6165 10.5262 47.6008 10.4645 47.5632 10.4191C47.5257 10.3737 47.4693 10.3445 47.4098 10.3445H45.5999C45.5091 10.3445 45.4309 10.4094 45.4058 10.497C44.886 12.5213 43.3736 13.6827 41.2506 13.6827C38.3699 13.6827 36.4348 11.3761 36.4348 7.94068C36.4348 4.50518 38.373 2.19864 41.2506 2.19864Z" fill="black"/>
<path d="M50.3046 0.0419922C49.5625 0.0419922 49.002 0.622683 49.002 1.39153C49.002 2.16038 49.5625 2.74107 50.3046 2.74107C51.0467 2.74107 51.6071 2.16038 51.6071 1.39153C51.6071 0.622683 51.0467 0.0419922 50.3046 0.0419922Z" fill="black"/>
<path d="M51.154 4.28809H49.4475C49.3379 4.28809 49.2471 4.38216 49.2471 4.49571V15.4899C49.2471 15.6034 49.3379 15.6975 49.4475 15.6975H51.154C51.2636 15.6975 51.3544 15.6034 51.3544 15.4899V4.49246C51.3544 4.37892 51.2636 4.28809 51.154 4.28809Z" fill="black"/>
<path d="M58.8812 4.2884H58.4022C56.6017 4.2884 55.7814 5.00534 55.3242 5.6055L55.1676 4.46358C55.152 4.36301 55.0674 4.28516 54.9704 4.28516H53.4924C53.3828 4.28516 53.292 4.37923 53.292 4.49278V15.4869C53.292 15.6005 53.3828 15.6946 53.4924 15.6946H55.1989C55.3085 15.6946 55.3993 15.6005 55.3993 15.4869V9.88443C55.3993 8.59328 55.7406 6.42625 58.0296 6.42625H58.8812C58.9908 6.42625 59.0816 6.33217 59.0816 6.21863V4.49278C59.0816 4.37923 58.9939 4.2884 58.8812 4.2884Z" fill="black"/>
<path d="M64.6159 6.14334C66.003 6.14334 67.0614 6.96733 67.3776 8.29089C67.3996 8.38497 67.4778 8.44989 67.5718 8.44989H69.3003C69.3596 8.44989 69.4161 8.42389 69.4533 8.37525C69.4913 8.32982 69.5071 8.26818 69.4975 8.20654C69.0528 5.6697 67.2524 4.15796 64.6817 4.15796C61.4377 4.15796 59.2583 6.49369 59.2583 9.96811C59.2583 13.4685 61.4126 15.8237 64.619 15.8237C67.2085 15.8237 69.0342 14.2925 69.4975 11.7329C69.5099 11.6713 69.494 11.6096 69.4533 11.561C69.4127 11.5123 69.3596 11.4863 69.3003 11.4863H67.5937C67.4997 11.4863 67.4183 11.5545 67.3996 11.6485C67.1021 13.0175 66.0656 13.8383 64.619 13.8383C62.6964 13.8383 61.4063 12.2844 61.4063 9.97132C61.4032 7.68104 62.6964 6.14334 64.6159 6.14334Z" fill="black"/>
<path d="M72.9754 0.554688H71.269C71.1594 0.554688 71.0684 0.648766 71.0684 0.762311V15.4872C71.0684 15.6007 71.1594 15.6948 71.269 15.6948H72.9754C73.085 15.6948 73.176 15.6007 73.176 15.4872V0.762311C73.176 0.648766 73.085 0.554688 72.9754 0.554688Z" fill="black"/>
<path d="M79.5591 4.15796C76.4284 4.15796 74.3242 6.50342 74.3242 9.99082C74.3242 13.4782 76.5187 15.8237 79.788 15.8237C82.2555 15.8237 84.1467 14.26 84.6038 11.84C84.6162 11.7783 84.601 11.7167 84.5631 11.668C84.5259 11.6193 84.4693 11.5934 84.41 11.5934H82.6816C82.5906 11.5934 82.512 11.6583 82.4872 11.7491C82.1618 13.0565 81.1062 13.835 79.6626 13.835C77.828 13.835 76.6008 12.5471 76.516 10.5488L84.5541 10.539C84.6541 10.539 84.7451 10.4483 84.7541 10.3347C84.7727 10.0816 84.7948 9.81889 84.7948 9.57232C84.7106 6.28283 82.6561 4.15796 79.5591 4.15796ZM82.5996 8.66397H76.6442C76.8882 7.18789 78.1099 6.12387 79.5784 6.12387C81.2221 6.12387 82.3714 7.09385 82.5996 8.66397Z" fill="black"/>
<path fill-rule="evenodd" clip-rule="evenodd" d="M7.63542 0.000976562C3.42483 0.000976562 0 3.55 0 7.91328C0 12.2766 3.42483 15.8223 7.63542 15.8223C11.846 15.8223 15.2709 12.2733 15.2709 7.91006C15.2709 3.54675 11.8429 0.000976562 7.63542 0.000976562Z" fill="black"/>
<path fill-rule="evenodd" clip-rule="evenodd" d="M30.5397 8.40557L23.955 0.273926C23.6599 -0.0896979 23.1164 -0.0929157 22.8213 0.273926L16.2211 8.40557C16.0192 8.65336 16.19 9.02986 16.5037 9.02986H18.1344C18.4139 9.02986 18.6096 8.85286 18.6996 8.74022L21.902 4.94311C22.0324 4.78866 22.2778 4.88519 22.2778 5.08792V15.3949C22.2778 15.662 22.4859 15.8776 22.7436 15.8776H24.0171C24.2749 15.8776 24.483 15.662 24.483 15.3949V5.07505C24.483 4.8691 24.7284 4.77256 24.8588 4.93024L28.0735 8.75957C28.1667 8.87221 28.3438 9.03307 28.6979 9.03307H30.257C30.5707 9.03307 30.7416 8.65336 30.5397 8.40557Z" fill="black"/>
</g>
<defs>
<clipPath id="clip0_1_975">
<rect width="111" height="20" fill="white"/>
</clipPath>
</defs>
</svg>
