<svg width="68" height="100" viewBox="0 0 68 100" fill="none" xmlns="http://www.w3.org/2000/svg">
<g opacity="0.3" clip-path="url(#clip0_1_1200)">
<g clip-path="url(#clip1_1_1200)">
<circle cx="2" cy="2" r="2" fill="#17181A"/>
<circle cx="18" cy="2" r="2" fill="#17181A"/>
<circle cx="34" cy="2" r="2" fill="#17181A"/>
<circle cx="50" cy="2" r="2" fill="#17181A"/>
<circle cx="66" cy="2" r="2" fill="#17181A"/>
</g>
<g clip-path="url(#clip2_1_1200)">
<circle cx="2" cy="18" r="2" fill="#17181A"/>
<circle cx="18" cy="18" r="2" fill="#17181A"/>
<circle cx="34" cy="18" r="2" fill="#17181A"/>
<circle cx="50" cy="18" r="2" fill="#17181A"/>
<circle cx="66" cy="18" r="2" fill="#17181A"/>
</g>
<g clip-path="url(#clip3_1_1200)">
<circle cx="2" cy="34" r="2" fill="#17181A"/>
<circle cx="18" cy="34" r="2" fill="#17181A"/>
<circle cx="34" cy="34" r="2" fill="#17181A"/>
<circle cx="50" cy="34" r="2" fill="#17181A"/>
<circle cx="66" cy="34" r="2" fill="#17181A"/>
</g>
<g clip-path="url(#clip4_1_1200)">
<circle cx="2" cy="50" r="2" fill="#17181A"/>
<circle cx="18" cy="50" r="2" fill="#17181A"/>
<circle cx="34" cy="50" r="2" fill="#17181A"/>
<circle cx="50" cy="50" r="2" fill="#17181A"/>
<circle cx="66" cy="50" r="2" fill="#17181A"/>
</g>
<g clip-path="url(#clip5_1_1200)">
<circle cx="2" cy="66" r="2" fill="#17181A"/>
<circle cx="18" cy="66" r="2" fill="#17181A"/>
<circle cx="34" cy="66" r="2" fill="#17181A"/>
<circle cx="50" cy="66" r="2" fill="#17181A"/>
<circle cx="66" cy="66" r="2" fill="#17181A"/>
</g>
<g clip-path="url(#clip6_1_1200)">
<circle cx="2" cy="82" r="2" fill="#17181A"/>
<circle cx="18" cy="82" r="2" fill="#17181A"/>
<circle cx="34" cy="82" r="2" fill="#17181A"/>
<circle cx="50" cy="82" r="2" fill="#17181A"/>
<circle cx="66" cy="82" r="2" fill="#17181A"/>
</g>
<g clip-path="url(#clip7_1_1200)">
<circle cx="2" cy="98" r="2" fill="#17181A"/>
<circle cx="18" cy="98" r="2" fill="#17181A"/>
<circle cx="34" cy="98" r="2" fill="#17181A"/>
<circle cx="50" cy="98" r="2" fill="#17181A"/>
<circle cx="66" cy="98" r="2" fill="#17181A"/>
</g>
</g>
<defs>
<clipPath id="clip0_1_1200">
<rect width="68" height="100" fill="white"/>
</clipPath>
<clipPath id="clip1_1_1200">
<rect width="68" height="4" fill="white"/>
</clipPath>
<clipPath id="clip2_1_1200">
<rect width="68" height="4" fill="white" transform="translate(0 16)"/>
</clipPath>
<clipPath id="clip3_1_1200">
<rect width="68" height="4" fill="white" transform="translate(0 32)"/>
</clipPath>
<clipPath id="clip4_1_1200">
<rect width="68" height="4" fill="white" transform="translate(0 48)"/>
</clipPath>
<clipPath id="clip5_1_1200">
<rect width="68" height="4" fill="white" transform="translate(0 64)"/>
</clipPath>
<clipPath id="clip6_1_1200">
<rect width="68" height="4" fill="white" transform="translate(0 80)"/>
</clipPath>
<clipPath id="clip7_1_1200">
<rect width="68" height="4" fill="white" transform="translate(0 96)"/>
</clipPath>
</defs>
</svg>
