<svg width="122" height="20" viewBox="0 0 122 20" fill="none" xmlns="http://www.w3.org/2000/svg">
<g clip-path="url(#clip0_1_870)">
<rect width="122" height="20" fill="white"/>
<path d="M76.6405 6.27519H78.6347V6.31441L75.9562 19.7066H74.0206V19.6673L74.2748 18.2752C73.3168 19.334 72.0068 19.8634 70.3645 19.8634C68.1357 19.8634 66.6302 18.334 66.6302 16.0595C66.6302 15.5889 66.6889 15.236 66.7671 14.8438L66.7866 14.7262L68.4876 6.27519H70.4427V6.31441L68.7809 14.5497C68.7027 15.0007 68.644 15.4517 68.644 15.785C68.644 17.236 69.5434 18.1183 71.0684 18.1183C71.5962 18.1183 74.2943 17.9419 74.9982 14.4713L76.6405 6.27519ZM88.4104 6.09872C86.8854 6.09872 85.5559 6.70656 84.6956 7.8046L85.0084 6.2948V6.25558H83.0728L80.3943 19.6477V19.687H82.369L84.0113 11.4713C84.4219 9.37323 86.0642 7.84382 87.8825 7.84382C88.6645 7.84382 89.2902 8.15754 89.7594 8.78499L89.7789 8.8046L91.3821 7.37323L91.3626 7.35362C90.6001 6.51049 89.6421 6.09872 88.4104 6.09872ZM55.9161 7.96147V8.00068H62.6222L53.6873 18.0399L53.3549 19.687H62.8764L63.2087 17.9419H56.0921L65.0466 7.90264L65.3789 6.25558H56.2485L55.9161 7.96147ZM91.5972 19.6477V19.687H93.5523L96.2309 6.27519H94.2953L91.5972 19.6477ZM118.246 6.09872C116.623 6.09872 115.372 6.58891 114.394 7.60852L115.919 0.137939H113.944L109.995 19.687H111.95L113.592 11.4713C114.296 8.00068 117.014 7.82421 117.542 7.82421C119.047 7.82421 119.947 8.68695 119.947 10.1575C119.947 10.4909 119.888 10.9419 119.81 11.3928L118.148 19.6673H120.103L121.823 11.2164C121.902 10.7654 121.96 10.3928 121.96 9.88303C121.98 7.62813 120.474 6.09872 118.246 6.09872ZM105.224 6.09872C101.666 6.09872 99.1636 8.58892 98.3619 12.9615C98.2251 13.687 98.1664 14.5105 98.1664 15.0203C98.1664 18.0007 99.9847 19.8438 102.917 19.8438C104.618 19.8438 106.163 19.1968 107.414 17.9615L107.434 17.9419L106.3 16.5693L106.28 16.5497L106.261 16.5693C105.224 17.6673 104.286 18.0987 103.035 18.0987C101.647 18.0987 100.141 17.2752 100.141 14.9615C100.141 14.236 100.219 13.6281 100.356 12.9615C100.571 11.8242 101.04 10.236 102.096 9.13794C102.937 8.27519 103.934 7.84382 105.048 7.84382C106.222 7.84382 106.965 8.25558 107.668 9.31441L107.688 9.33402L109.135 8.11833L109.154 8.09872L109.135 8.07912C108.118 6.70657 106.925 6.09872 105.224 6.09872ZM95.0382 2.58892H97.0129L97.5017 0.137939H95.5466L95.0382 2.58892ZM75.9366 2.58892H77.9113L78.4001 0.137939H76.445L75.9366 2.58892ZM70.6969 2.58892H72.6716L73.1604 0.137939H71.2052L70.6969 2.58892ZM44.4395 7.70656H40.0209L41.5655 0.137939H4.00746L0.0581055 19.687H15.0344L16.012 14.8046H7.17477L7.70266 12.1183H16.5398L17.4392 7.72617H8.60202L9.1299 5.0399H23.1482L20.1959 19.7066H26.335L29.2873 5.0399H34.4488L31.4966 19.7066H37.6357L39.1411 12.1379H43.5597L42.0347 19.7066H48.1738L52.1232 0.157543H45.9841L44.4395 7.70656Z" fill="#17181A"/>
</g>
<defs>
<clipPath id="clip0_1_870">
<rect width="122" height="20" fill="white"/>
</clipPath>
</defs>
</svg>
