<svg width="95" height="50" viewBox="0 0 95 50" fill="none" xmlns="http://www.w3.org/2000/svg">
<path d="M40.5881 12.3176L34.3664 6.21031C34.9192 5.59973 35.4727 4.98884 36.0946 4.44576L42.3156 10.5534L40.5881 12.3176ZM36.5783 4.03861C37.3387 3.35991 38.168 2.81683 39.0668 2.27406L44.9419 8.04266L42.7994 10.1462L36.5783 4.03861ZM45.3569 7.63519L39.6196 2.00316C40.3796 1.59568 41.2097 1.25634 42.0387 0.984794L47.0844 5.93876L45.3569 7.63519ZM50.1261 8.04266L56.0005 2.27406C56.8999 2.81683 57.7286 3.35991 58.4893 4.03861L52.2683 10.1462L50.1261 8.04266ZM54.4798 20.8678L60.7009 26.9758C60.3562 27.3836 59.7331 27.9945 59.3881 28.4013C59.1802 28.6054 59.1118 28.7407 59.0424 28.7407L52.822 22.6333L54.4798 20.8678ZM52.3376 22.9727L58.5587 29.08C57.798 29.7593 56.969 30.3015 56.0702 30.8439L50.1954 25.076L52.3376 22.9727ZM49.7114 25.5509L55.448 31.1833C54.688 31.5904 53.2361 32.1335 53.0279 32.2019L47.9829 27.2476L49.7114 25.5509ZM47.5679 27.6542L52.4073 32.4047C49.2273 33.3553 45.8407 33.3553 42.7303 32.4047L47.5679 27.6542ZM44.9419 25.076L39.0668 30.8439C38.1684 30.3015 37.3387 29.7593 36.5783 29.08L42.7994 22.9727L44.9419 25.076ZM50.5401 12.7248L52.2683 11.0283L53.9961 12.7248L52.2683 14.4215L50.5401 12.7248ZM44.5272 20.3929L42.7994 22.0896L41.0712 20.3929L42.7994 18.6961L44.5272 20.3929ZM40.795 16.3898C40.6569 16.5254 40.6569 16.661 40.795 16.7966L42.3153 18.2903L40.5878 19.987L37.1315 16.5254L40.5878 13.1322L42.3153 14.829L40.795 16.3898ZM41.0022 12.7248L42.7994 10.9605L44.5272 12.657L42.7994 14.3537L41.0022 12.7248ZM43.2141 10.6212L45.3563 8.5173L47.0841 10.214L44.9419 12.3179L43.2141 10.6212ZM50.1261 12.3176L47.9835 10.2137L49.7117 8.51698L51.8539 10.6209L50.1261 12.3176ZM51.8539 22.5643L49.7117 24.6691L47.9835 22.9724L50.1261 20.8675L51.8539 22.5643ZM44.9419 20.8678L47.0841 22.9727L45.3563 24.7369L43.2141 22.6333L44.9419 20.8678ZM44.7347 16.7966C44.8732 16.661 44.8732 16.5254 44.7347 16.3898L43.2144 14.8965L44.9422 13.1997L47.0844 15.3036L45.9794 16.3898C45.8407 16.5254 45.8407 16.661 45.9794 16.7966L47.0844 17.8828L44.9422 19.987L43.2144 18.2903L44.7347 16.7966ZM46.6701 16.5932L47.5679 15.7111L48.467 16.5932L47.5679 17.4747L46.6701 16.5932ZM47.5679 18.2903L49.7114 20.3926L47.5679 22.4968L45.426 20.3926L47.5679 18.2903ZM50.3332 16.3898C50.1951 16.5254 50.1951 16.661 50.3332 16.7966L51.8536 18.2903L50.1257 19.987L47.9832 17.8828L49.0892 16.7966C49.2273 16.661 49.2273 16.5254 49.0892 16.3898L47.9832 15.3036L50.1257 13.1997L51.9233 14.8965L50.3332 16.3898ZM45.4257 12.7248L47.5675 10.6212L49.711 12.7248L47.5675 14.8287L45.4257 12.7248ZM51.0238 16.5932L52.3376 15.3039L53.6518 16.5932L52.3376 17.8828L51.0238 16.5932ZM44.1125 16.5932L42.7994 17.8828L41.4859 16.5932L42.7994 15.3039L44.1125 16.5932ZM49.2957 25.076L47.5679 26.7727L45.8407 25.076L47.5679 23.3792L49.2957 25.076ZM54.0658 20.3929L52.3376 22.0896L50.6098 20.3929L52.3376 18.6961L54.0658 20.3929ZM54.2727 16.7966C54.4118 16.661 54.4118 16.5254 54.2727 16.3898L52.7523 14.8965L54.4802 13.1997L57.9365 16.5929L54.4802 19.9867L52.7523 18.2899L54.2727 16.7966ZM45.7716 8.04266L47.4998 6.34624L49.2273 8.04266L47.4998 9.7394L45.7716 8.04266ZM54.8958 20.3929L58.5587 16.7966C58.6968 16.661 58.6968 16.5254 58.5587 16.3898L54.8958 12.7932L61.0468 6.75275C65.4697 12.5892 65.4697 20.6651 61.0468 26.5005L54.8958 20.3929ZM36.4402 16.3898C36.3021 16.5254 36.3021 16.661 36.4402 16.7966L40.1037 20.3929L33.9524 26.4333C29.5282 20.5966 29.5282 12.5213 33.9524 6.68495L40.1037 12.7248L36.4402 16.3898ZM42.385 22.5643L36.1636 28.6719C35.5418 28.1298 34.9893 27.5189 34.4361 26.908L40.6572 20.8L42.385 22.5643ZM45.3569 25.5509L47.0844 27.248L42.0387 32.2023C41.2097 31.9301 40.3796 31.5907 39.6196 31.1836L45.3569 25.5509ZM54.4798 12.3176L52.752 10.6209L58.973 4.51325C59.5959 5.05633 60.1487 5.66722 60.7009 6.27748L54.4798 12.3176ZM47.9832 5.93845L53.0283 0.984475C53.8583 1.25602 54.6883 1.59505 55.4483 2.00284L49.7117 7.63519L47.9832 5.93845ZM42.6613 0.712933C45.8407 -0.236668 49.2273 -0.236668 52.3376 0.712933L47.4998 5.46317L42.6613 0.712933Z" fill="#21A6AA"/>
<path d="M4.16131 43.6262H4.02286C2.29503 43.1512 1.53503 42.8106 1.53503 41.522C1.53503 40.4358 2.22532 39.7581 3.40099 39.7581C3.40099 39.7581 5.81975 39.7581 6.51134 41.7257V41.7932H7.27166V38.875H6.51134L6.2351 39.9618C5.54318 39.2831 4.50694 38.875 3.53943 38.875C1.53503 38.875 0.152832 40.0965 0.152832 41.8616C0.152832 43.8296 1.87969 44.4405 3.74694 44.9155C5.61322 45.3904 6.44228 45.7291 6.44228 47.0872C6.44228 48.3089 5.47445 48.8511 4.50726 48.8511C3.05535 48.9205 1.67348 48.1721 0.913155 46.9506V46.8831H0.152832V49.8688H0.913155L1.25781 48.5798C2.08785 49.3932 3.26319 49.8688 4.4382 49.8688C6.4426 49.8688 7.89419 48.5124 7.89419 46.6791C7.82415 44.5755 6.16571 44.169 4.16131 43.6262Z" fill="#303337"/>
<path d="M9.4146 41.1152H10.1749V40.9115C10.3828 39.6897 10.4521 39.6897 11.3506 39.6897H13.2853V48.9202H12.249V49.8014H15.9119V48.9202H14.8753V39.6897H16.7416C17.64 39.6897 17.7098 39.6897 17.9176 40.8427V41.0471H18.6776V38.7407H9.34619V41.1152H9.4146Z" fill="#303337"/>
<path d="M26.7623 41.1152H27.5226V40.9115C27.7301 39.6897 27.7995 39.6897 28.6983 39.6897H30.6339V48.9202H29.598V49.8014H33.2602V48.9202H32.2233V39.6897H34.0906C34.9887 39.6897 35.0584 39.6897 35.2653 40.8427V41.0471H36.0253V38.7407H26.6938V41.1152H26.7623Z" fill="#303337"/>
<path d="M20.8877 39.6902H21.9239V48.9208H20.8877V49.8019H24.5509V48.9208H23.514V39.6902H24.5509V38.8081H20.8877V39.6902Z" fill="#303337"/>
<path d="M55.9321 39.6902H57.0371V44.1699H51.7845V39.6902H52.752V38.8081H49.0879V39.6902H50.1945V48.9208H49.1576V49.8019H52.8204V48.9208H51.7845V45.0523H57.0371V48.9208H55.9321V49.8019H59.5949V48.9208H58.6271V39.6902H59.5949V38.8081H55.9321V39.6902Z" fill="#303337"/>
<path d="M78.7417 39.6902H79.7796V48.9208H78.7417V49.8019H82.4045V48.9208H81.368V39.6902H82.4045V38.8081H78.7417V39.6902Z" fill="#303337"/>
<path d="M94.8463 39.6902V38.8081H91.1834V39.6902H92.0806L89.6621 43.0156L87.3808 39.6902H88.2796V38.8081H84.6161V39.6902H85.6527L88.8327 44.3736L85.6527 48.9208H84.5474V49.8019H88.2115V48.9208H87.0362L89.4553 45.3239L91.9434 48.9208H90.9759V49.8019H94.6388V48.9208H93.6716L90.3527 44.0327L93.3947 39.6902H94.8463Z" fill="#303337"/>
<path d="M68.234 39.6898H69.3412V48.9203H68.234V49.8015H71.8978V48.9203H70.9303V45.0519H72.6585C73.2803 45.0519 73.3501 45.1193 73.5572 45.729V45.7987V45.8662H74.3179V43.0833H73.5572V43.1517L73.4879 43.2864C73.28 43.8298 73.2106 44.0325 72.5894 44.0325H70.8616V39.5548H74.6625C75.4225 39.5548 75.5613 39.7589 75.976 40.7766V40.8434H76.806V38.6042H68.0972L68.234 39.6898Z" fill="#303337"/>
<path d="M45.7711 45.458C45.4252 47.5623 44.2508 48.7837 42.4533 48.7837C40.3104 48.7837 38.997 47.0198 38.997 44.1694C38.997 41.4549 40.3104 39.6901 42.3152 39.6901C44.2508 39.6901 45.2871 40.9119 45.7711 41.9299V41.9974H46.5311V38.7411H45.7011L45.4249 39.8941C44.5952 39.0795 43.5586 38.6724 42.3829 38.7411C39.4804 38.7411 37.3379 41.1156 37.3379 44.2366C37.3379 45.8665 37.8216 47.2242 38.7901 48.2419C39.6873 49.1922 41.0007 49.8018 42.3148 49.7346C44.8714 49.7346 46.4614 48.1725 46.8071 45.3906V45.2559H45.8389L45.7711 45.458Z" fill="#303337"/>
</svg>
