<svg width="94" height="30" viewBox="0 0 94 30" fill="none" xmlns="http://www.w3.org/2000/svg">
<g clip-path="url(#clip0_1_966)">
<path d="M11.576 0.00366211H12.4119C15.3139 0.0653479 18.1686 1.20653 20.2189 3.22674C19.4619 3.98239 18.6891 4.7072 17.9478 5.46285C16.7965 4.44504 15.4085 3.65854 13.8944 3.38096C11.6549 2.91831 9.24177 3.33469 7.36492 4.58383C5.31458 5.89465 3.92666 8.11534 3.627 10.4902C3.29579 12.8343 3.97398 15.3017 5.53539 17.1215C7.03371 18.8949 9.32062 20.0053 11.6864 20.0824C13.8944 20.2057 16.1971 19.5426 17.8059 18.0313C19.0676 16.9672 19.6512 15.348 19.8404 13.775C17.2223 13.775 14.6042 13.7904 11.9861 13.775V10.5982H23.0106C23.5783 14.0063 22.7582 17.8463 20.1085 20.2829C18.3421 22.0101 15.8975 23.0279 13.4055 23.2283C10.9924 23.4597 8.50049 23.0124 6.35552 21.8713C3.78472 20.5296 1.73438 18.2626 0.724986 15.5947C-0.221323 13.1427 -0.237095 10.3669 0.646127 7.89944C1.45049 5.64791 2.99613 3.65854 4.98338 2.27061C6.89177 0.898106 9.21022 0.142455 11.576 0.00366211Z" fill="#3780FF"/>
<path d="M74.8208 0.803955H78.1959V22.8258C77.0762 22.8258 75.9406 22.8412 74.8208 22.8103C74.8366 15.4852 74.8208 8.14456 74.8208 0.803955Z" fill="#38B137"/>
<path d="M30.5192 8.43856C32.6011 8.05302 34.8564 8.48482 36.5756 9.70311C38.137 10.7826 39.2252 12.479 39.5565 14.3295C39.9823 16.4731 39.4461 18.8172 38.0266 20.5135C36.4967 22.4104 33.989 23.4282 31.5443 23.274C29.3047 23.1506 27.1282 22.0557 25.8034 20.2668C24.3051 18.2928 23.9423 15.5787 24.7624 13.2655C25.5826 10.7826 27.901 8.88578 30.5192 8.43856ZM30.9923 11.3686C30.1407 11.5845 29.3521 12.0626 28.7843 12.7411C27.2544 14.53 27.349 17.4447 29.0366 19.1102C29.9987 20.0663 31.4497 20.5135 32.7903 20.2514C34.0363 20.0355 35.1246 19.2181 35.7239 18.1386C36.7648 16.3035 36.4652 13.7744 34.8722 12.3402C33.847 11.4149 32.3487 11.0294 30.9923 11.3686Z" fill="#FA3913"/>
<path d="M47.2359 8.43774C49.6174 7.99052 52.2198 8.63822 54.002 10.2729C56.904 12.8174 57.2194 17.5826 54.7433 20.5127C53.2449 22.3633 50.8161 23.3811 48.4188 23.2732C46.1319 23.2115 43.8765 22.1011 42.5201 20.266C40.9902 18.2458 40.659 15.4699 41.5265 13.1104C42.3939 10.7047 44.6651 8.86954 47.2359 8.43774ZM47.709 11.3678C46.8574 11.5837 46.0688 12.0618 45.501 12.7249C43.9869 14.4829 44.05 17.3513 45.6745 19.0323C46.6365 20.0347 48.1349 20.5281 49.5228 20.2506C50.753 20.0192 51.857 19.2173 52.4563 18.1378C53.4815 16.2872 53.1818 13.7581 51.5731 12.3239C50.548 11.3987 49.0496 11.0285 47.709 11.3678Z" fill="#FCBD06"/>
<path d="M61.4169 9.33242C63.2307 8.22207 65.6437 7.91365 67.5994 8.86978C68.2145 9.13194 68.7192 9.57916 69.2082 10.0264C69.2239 9.61001 69.2082 9.17821 69.2239 8.7464C70.2806 8.76183 71.3373 8.7464 72.4098 8.76183V22.3636C72.3941 24.4146 71.8578 26.589 70.3437 28.0849C68.6877 29.735 66.1484 30.2439 63.8615 29.9046C61.4169 29.55 59.2877 27.8073 58.3414 25.6021C59.2877 25.1548 60.2814 24.8001 61.2592 24.3838C61.8112 25.6483 62.931 26.7278 64.3347 26.9746C65.7384 27.2213 67.3629 26.882 68.2776 25.7409C69.2555 24.5688 69.2555 22.965 69.2082 21.5308C68.4827 22.2248 67.6468 22.8416 66.6374 23.0729C64.4451 23.6744 62.032 22.9342 60.3444 21.4845C58.6411 20.0349 57.6317 17.7988 57.7263 15.5781C57.7736 13.0644 59.2246 10.6432 61.4169 9.33242ZM64.6817 11.3064C63.7196 11.4606 62.8206 11.9849 62.2055 12.7097C60.723 14.4369 60.723 17.1974 62.2213 18.8937C63.073 19.8961 64.4451 20.4513 65.7699 20.3125C67.0159 20.1891 68.1672 19.4181 68.7823 18.354C69.8233 16.5497 69.6498 14.0977 68.2461 12.5247C67.3786 11.5531 65.9907 11.075 64.6817 11.3064Z" fill="#3780FF"/>
<path d="M82.2492 10.1193C84.1419 8.39206 87.0597 7.80605 89.4885 8.71591C91.7912 9.56409 93.258 11.7077 93.9993 13.9129C90.5768 15.3009 87.1701 16.6734 83.7476 18.0613C84.2207 18.9403 84.9462 19.7422 85.9241 20.0661C87.2962 20.5441 88.9365 20.3745 90.0879 19.4801C90.5452 19.1408 90.908 18.6936 91.255 18.2618C92.1224 18.8324 92.9899 19.3875 93.8573 19.9581C92.6271 21.7624 90.561 23.027 88.3372 23.2275C85.8768 23.5205 83.2586 22.5952 81.6657 20.7138C79.0476 17.7529 79.2999 12.7872 82.2492 10.1193ZM83.9368 12.9722C83.4006 13.7279 83.1798 14.6532 83.1956 15.563C85.4825 14.6377 87.7694 13.7125 90.0563 12.7717C89.6778 11.9081 88.763 11.3838 87.8325 11.245C86.3342 10.9829 84.7727 11.7694 83.9368 12.9722Z" fill="#FA3913"/>
</g>
<defs>
<clipPath id="clip0_1_966">
<rect width="94" height="30" fill="white"/>
</clipPath>
</defs>
</svg>
