<svg width="115" height="115" viewBox="0 0 115 115" fill="none" xmlns="http://www.w3.org/2000/svg">
<path opacity="0.3" fill-rule="evenodd" clip-rule="evenodd" d="M13.8759 94.1725C14.9531 95.4581 16.0959 96.7072 17.3044 97.9157C18.5128 99.1241 19.762 100.267 21.0475 101.344L13.8759 94.1725ZM30.0513 107.523L7.69721 85.1687C6.65951 83.2914 5.73575 81.3679 4.92594 79.4085L35.8116 110.294C33.8521 109.484 31.9287 108.561 30.0513 107.523ZM40.2617 111.919C41.6284 112.354 43.0083 112.737 44.3982 113.067L2.1534 70.8219C2.48311 72.2117 2.86562 73.5916 3.30095 74.9583L40.2617 111.919ZM1.42964 67.273L47.9471 113.79C49.1008 113.988 50.2595 114.15 51.4213 114.276L0.944306 63.7987C1.07045 64.9605 1.23222 66.1192 1.42964 67.273ZM0.693963 60.7232L54.4968 114.526C55.5205 114.582 56.5454 114.61 57.5702 114.611L0.609454 57.6498C0.610155 58.6747 0.638324 59.6996 0.693963 60.7232ZM0.674039 54.8892L60.3308 114.546C61.2614 114.502 62.1911 114.435 63.119 114.345L0.874723 52.101C0.78514 53.0289 0.718244 53.9586 0.674039 54.8892ZM1.17516 49.5763L65.6438 114.045C66.5015 113.923 67.3571 113.782 68.2097 113.622L1.59817 47.0104C1.43761 47.863 1.29661 48.7185 1.17516 49.5763ZM2.08858 44.6756L70.5444 113.131C71.3418 112.946 72.136 112.744 72.9264 112.524L2.69555 42.2937C2.47587 43.084 2.27355 43.8782 2.08858 44.6756ZM3.34675 40.1197L75.1003 111.873C75.8455 111.634 76.5868 111.378 77.3235 111.108L4.11251 37.8965C3.84154 38.6333 3.58628 39.3745 3.34675 40.1197ZM4.90488 35.8637L79.3563 110.315C80.0549 110.027 80.749 109.725 81.438 109.408L5.81209 33.782C5.49521 34.4711 5.19281 35.1651 4.90488 35.8637ZM6.7319 31.8767L83.3434 108.488C83.9994 108.156 84.6504 107.811 85.2958 107.452L7.76833 29.9242C7.40935 30.5697 7.06388 31.2206 6.7319 31.8767ZM8.80577 28.1365L87.0836 106.414C87.6999 106.041 88.3107 105.656 88.9156 105.257L9.96262 26.3044C9.56428 26.9093 9.17866 27.5201 8.80577 28.1365ZM11.1107 24.6273L90.5927 104.109C91.1715 103.698 91.7442 103.274 92.3107 102.838L12.3816 22.9093C11.9459 23.4758 11.5222 24.0486 11.1107 24.6273ZM13.6352 21.3378L93.8823 101.585C94.4248 101.136 94.961 100.676 95.4905 100.204L15.0158 19.7295C14.544 20.259 14.0838 20.7952 13.6352 21.3378ZM16.3715 18.26L96.96 98.8485C97.2809 98.542 97.5991 98.2311 97.9145 97.9157C98.0984 97.7318 98.2808 97.547 98.4616 97.3612L17.8588 16.7584C17.6731 16.9393 17.4882 17.1216 17.3044 17.3055C16.9889 17.6209 16.678 17.9391 16.3715 18.26ZM19.3147 15.3891L99.8309 95.9053C100.307 95.3807 100.773 94.8494 101.226 94.3116L20.9084 13.9939C20.3707 14.4475 19.8393 14.9125 19.3147 15.3891ZM22.466 12.7264L102.494 92.754C102.934 92.1926 103.363 91.6249 103.78 91.0511L24.1689 11.4404C23.5952 11.857 23.0274 12.2857 22.466 12.7264ZM25.8315 10.2778L104.942 89.3885C105.346 88.7889 105.737 88.1833 106.115 87.5722L27.6479 9.10521C27.0367 9.48345 26.4311 9.87433 25.8315 10.2778ZM29.4203 8.05246L107.168 85.7997C107.532 85.1599 107.883 84.5145 108.221 83.864L31.356 6.99931C30.7055 7.33697 30.0601 7.68802 29.4203 8.05246ZM33.245 6.0631L109.157 81.975C109.48 81.2921 109.788 80.6041 110.082 79.9114L35.3086 5.1378C34.6159 5.43191 33.9279 5.74033 33.245 6.0631ZM37.3235 4.32751L110.893 77.8966C111.17 77.1666 111.432 76.432 111.678 75.6934L39.5266 3.54176C38.788 3.78814 38.0535 4.05006 37.3235 4.32751ZM41.6805 2.87049L112.35 73.5395C112.577 72.7568 112.786 71.9702 112.979 71.1802L44.0398 2.24079C43.2498 2.43359 42.4632 2.64349 41.6805 2.87049ZM46.3514 1.72722L113.493 68.8687C113.662 68.0251 113.812 67.1785 113.943 66.3295L48.8905 1.27747C48.0415 1.40818 47.1949 1.55809 46.3514 1.72722ZM51.3874 0.949159L114.271 63.8327C114.371 62.9159 114.449 61.9972 114.505 61.0774L54.1426 0.715473C53.2228 0.771179 52.3041 0.849073 51.3874 0.949159ZM56.8677 0.615395L114.605 58.3523C114.618 57.3423 114.604 56.332 114.564 55.3226L59.8975 0.656253C58.888 0.615954 57.8777 0.602331 56.8677 0.615395ZM62.9237 0.857362L114.363 52.2963C114.257 51.1566 114.116 50.0194 113.942 48.8865L66.3335 1.27827C65.2006 1.10376 64.0635 0.963456 62.9237 0.857362ZM69.8035 1.92305L113.297 45.4166C113.003 44.067 112.659 42.7261 112.266 41.3967L73.8234 2.95395C72.4939 2.56086 71.153 2.21723 69.8035 1.92305ZM78.1005 4.40589L110.814 37.1196C110.111 35.2907 109.31 33.4909 108.411 31.728L83.4921 6.80858C81.7292 5.90997 79.9293 5.10907 78.1005 4.40589ZM90.6892 11.1805L104.039 24.5309C102.23 21.9977 100.188 19.5795 97.9145 17.3055C95.6406 15.0316 93.2223 12.9899 90.6892 11.1805Z" fill="white"/>
</svg>
