<svg width="17" height="16" viewBox="0 0 17 16" fill="none" xmlns="http://www.w3.org/2000/svg">
<path d="M11.1711 10.5714C12.8737 7.89975 12.6597 8.23306 12.7087 8.16341C13.3286 7.28909 13.6562 6.26006 13.6562 5.1875C13.6562 2.34313 11.3481 0 8.5 0C5.66119 0 3.34375 2.3385 3.34375 5.1875C3.34375 6.25938 3.67825 7.31534 4.31844 8.20144L5.82881 10.5714C4.21397 10.8196 1.46875 11.5591 1.46875 13.1875C1.46875 13.7811 1.85619 14.627 3.70194 15.2862C4.99075 15.7465 6.69472 16 8.5 16C11.8758 16 15.5312 15.0478 15.5312 13.1875C15.5312 11.5588 12.7893 10.8201 11.1711 10.5714ZM5.10153 7.68578C5.09637 7.67772 5.091 7.66984 5.08537 7.66209C4.55266 6.92922 4.28125 6.06066 4.28125 5.1875C4.28125 2.84319 6.16894 0.9375 8.5 0.9375C10.8262 0.9375 12.7188 2.84403 12.7188 5.1875C12.7188 6.06206 12.4525 6.90116 11.9486 7.61472C11.9034 7.67428 12.139 7.30828 8.5 13.0184L5.10153 7.68578ZM8.5 15.0625C4.81269 15.0625 2.40625 13.9787 2.40625 13.1875C2.40625 12.6558 3.64275 11.7814 6.38275 11.4406L8.10469 14.1426C8.19075 14.2776 8.33981 14.3594 8.49997 14.3594C8.66012 14.3594 8.80922 14.2776 8.89525 14.1426L10.6172 11.4406C13.3572 11.7814 14.5938 12.6558 14.5938 13.1875C14.5938 13.9719 12.209 15.0625 8.5 15.0625Z" fill="#0070F0" fill-opacity="0.9"/>
<path d="M8.5 2.84375C7.20766 2.84375 6.15625 3.89516 6.15625 5.1875C6.15625 6.47984 7.20766 7.53125 8.5 7.53125C9.79234 7.53125 10.8438 6.47984 10.8438 5.1875C10.8438 3.89516 9.79234 2.84375 8.5 2.84375ZM8.5 6.59375C7.72459 6.59375 7.09375 5.96291 7.09375 5.1875C7.09375 4.41209 7.72459 3.78125 8.5 3.78125C9.27541 3.78125 9.90625 4.41209 9.90625 5.1875C9.90625 5.96291 9.27541 6.59375 8.5 6.59375Z" fill="#0070F0" fill-opacity="0.9"/>
</svg>
