<svg width="116" height="24" viewBox="0 0 116 24" fill="none" xmlns="http://www.w3.org/2000/svg">
<g clip-path="url(#clip0_1_958)">
<path d="M116.001 10.8576V8.88157H113.467V5.80961L113.382 5.83505L111.003 6.54024L110.956 6.55404V8.88167H107.2V7.58498C107.2 6.9812 107.339 6.51915 107.614 6.21101C107.887 5.90657 108.277 5.75179 108.775 5.75179C109.132 5.75179 109.503 5.83342 109.876 5.99439L109.969 6.03482V3.95381L109.925 3.93816C109.577 3.81708 109.104 3.7561 108.518 3.7561C107.779 3.7561 107.108 3.91186 106.522 4.22054C105.936 4.52966 105.475 4.97095 105.153 5.53202C104.831 6.09243 104.668 6.73969 104.668 7.45597V8.88157H102.904V10.8576H104.668V19.1822H107.2V10.8576H110.956V16.1477C110.956 18.3264 112.017 19.4305 114.109 19.4305C114.453 19.4305 114.815 19.3915 115.184 19.3151C115.56 19.2366 115.817 19.1582 115.967 19.0746L116.001 19.0554V17.0612L115.898 17.1271C115.76 17.2158 115.589 17.2883 115.388 17.3422C115.187 17.3971 115.019 17.4246 114.888 17.4246C114.398 17.4246 114.035 17.2967 113.81 17.0442C113.583 16.7894 113.467 16.3439 113.467 15.7207V10.8576H116.001ZM97.2486 17.4249C96.3294 17.4249 95.6048 17.1297 95.0941 16.5482C94.5802 15.9638 94.3199 15.1306 94.3199 14.0719C94.3199 12.9797 94.5802 12.1248 95.0943 11.5301C95.6053 10.9392 96.323 10.6393 97.2279 10.6393C98.106 10.6393 98.805 10.9257 99.3057 11.491C99.8088 12.0593 100.064 12.9073 100.064 14.0122C100.064 15.1308 99.8241 15.99 99.3505 16.5648C98.8803 17.1352 98.1731 17.4249 97.2486 17.4249ZM97.3611 8.63342C95.6076 8.63342 94.2148 9.13112 93.2217 10.1127C92.2293 11.0944 91.7261 12.453 91.7261 14.1509C91.7261 15.7637 92.2173 17.0609 93.1861 18.006C94.155 18.9514 95.4735 19.4303 97.1047 19.4303C98.8045 19.4303 100.17 18.9256 101.162 17.9305C102.155 16.9364 102.658 15.5907 102.658 13.9324C102.658 12.2944 102.186 10.9875 101.255 10.0487C100.323 9.10949 99.013 8.63342 97.3611 8.63342ZM87.6432 8.63342C86.4504 8.63342 85.4637 8.92896 84.71 9.51165C83.9516 10.0978 83.567 10.8666 83.567 11.7969C83.567 12.2805 83.65 12.71 83.8134 13.0743C83.9778 13.4399 84.2322 13.7617 84.5702 14.0318C84.9056 14.2997 85.4233 14.5804 86.1094 14.8659C86.6862 15.0958 87.1163 15.2902 87.3895 15.4435C87.6566 15.5937 87.8461 15.7447 87.9532 15.8917C88.0572 16.0356 88.1099 16.2326 88.1099 16.4756C88.1099 17.1677 87.5749 17.5044 86.474 17.5044C86.0656 17.5044 85.5998 17.4218 85.0896 17.259C84.583 17.0986 84.1048 16.8638 83.6719 16.5627L83.5667 16.4897V18.8512L83.6054 18.8686C83.9637 19.0288 84.4154 19.1639 84.9479 19.2702C85.4793 19.3766 85.9622 19.4307 86.3816 19.4307C87.676 19.4307 88.7183 19.1338 89.4789 18.5476C90.2443 17.9574 90.6322 17.1705 90.6322 16.208C90.6322 15.5137 90.4234 14.9183 90.0118 14.4381C89.603 13.9618 88.8935 13.5245 87.9039 13.138C87.1155 12.8315 86.6104 12.5771 86.402 12.3818C86.2012 12.1931 86.0992 11.9262 86.0992 11.5883C86.0992 11.2888 86.2251 11.0488 86.4835 10.8544C86.744 10.6591 87.1065 10.5598 87.5612 10.5598C87.9831 10.5598 88.4148 10.6243 88.8441 10.7508C89.2731 10.8774 89.6499 11.0468 89.9645 11.2541L90.0679 11.3226V9.08243L90.0282 9.06591C89.738 8.94537 89.3554 8.84222 88.8906 8.75853C88.4279 8.67538 88.0083 8.63342 87.6432 8.63342ZM76.9654 17.4249C76.0465 17.4249 75.3216 17.1297 74.811 16.5482C74.297 15.9638 74.0372 15.1308 74.0372 14.0719C74.0372 12.9797 74.2974 12.1248 74.8115 11.5301C75.3221 10.9392 76.0397 10.6393 76.9451 10.6393C77.8228 10.6393 78.5218 10.9257 79.0226 11.491C79.5258 12.0593 79.7811 12.9073 79.7811 14.0122C79.7811 15.1308 79.5409 15.99 79.0673 16.5648C78.5971 17.1352 77.8902 17.4249 76.9654 17.4249ZM77.0783 8.63342C75.3242 8.63342 73.9313 9.13112 72.9388 10.1127C71.9464 11.0944 71.4429 12.453 71.4429 14.1509C71.4429 15.7644 71.9344 17.0609 72.9033 18.006C73.8721 18.9514 75.1905 19.4303 76.8217 19.4303C78.5213 19.4303 79.8867 18.9256 80.8794 17.9305C81.8717 16.9364 82.3747 15.5907 82.3747 13.9324C82.3747 12.2944 81.9027 10.9875 80.9715 10.0487C80.0398 9.10949 78.7298 8.63342 77.0783 8.63342ZM67.5989 10.6654V8.88157H65.0975V19.1819H67.5989V13.9129C67.5989 13.017 67.8087 12.2809 68.2225 11.7249C68.6311 11.1756 69.1755 10.8973 69.8403 10.8973C70.0656 10.8973 70.3185 10.9332 70.5924 11.0044C70.8635 11.0752 71.0599 11.152 71.1757 11.2329L71.2809 11.3067V8.86396L71.2404 8.84711C71.0074 8.75125 70.6778 8.70288 70.2609 8.70288C69.6322 8.70288 69.0697 8.89852 68.5879 9.28372C68.1649 9.6223 67.8593 10.0865 67.6255 10.6654H67.5989ZM60.6178 8.63342C59.4702 8.63342 58.4466 8.87178 57.5759 9.34166C56.7035 9.81262 56.0287 10.485 55.5697 11.34C55.1126 12.1929 54.8806 13.1891 54.8806 14.3002C54.8806 15.2734 55.1056 16.1665 55.5503 16.9537C55.9952 17.7421 56.6249 18.3589 57.4221 18.7867C58.2181 19.214 59.1382 19.4306 60.1568 19.4306C61.3456 19.4306 62.3606 19.2004 63.1744 18.7464L63.2072 18.7282V16.5083L63.1021 16.5827C62.7335 16.8428 62.3215 17.0504 61.8783 17.2C61.4362 17.3494 61.0331 17.4249 60.6796 17.4249C59.6981 17.4249 58.9102 17.1275 58.3382 16.541C57.765 15.9537 57.4744 15.1291 57.4744 14.0914C57.4744 13.0472 57.7775 12.2013 58.3748 11.5772C58.9703 10.955 59.7597 10.6393 60.7209 10.6393C61.5431 10.6393 62.3443 10.909 63.1023 11.4416L63.2072 11.5154V9.17645L63.1734 9.15797C62.8881 9.0033 62.4991 8.87559 62.0161 8.77874C61.5352 8.68212 61.0648 8.63342 60.6178 8.63342ZM53.1578 8.88167H50.6563V19.1819H53.1578V8.88167ZM51.9326 4.49368C51.5209 4.49368 51.1618 4.62944 50.8668 4.89845C50.5706 5.16823 50.4203 5.50789 50.4203 5.90874C50.4203 6.30329 50.5688 6.63676 50.8622 6.89936C51.1538 7.16119 51.514 7.29391 51.9327 7.29391C52.3514 7.29391 52.713 7.16119 53.008 6.89979C53.3049 6.63676 53.4555 6.3034 53.4555 5.90874C53.4555 5.52191 53.3089 5.18572 53.0202 4.90932C52.7317 4.63346 52.3657 4.49368 51.9326 4.49368ZM45.6913 8.1217V19.1819H48.2442V4.809H44.7109L40.2199 15.4848L35.8617 4.809H32.1846V19.1818H34.5836V8.12062H34.6659L39.2681 19.1819H41.0786L45.609 8.1217H45.6913Z" fill="#565555"/>
<path d="M11.7676 11.4058H0V0.00756836H11.7676V11.4058Z" fill="#F1511B"/>
<path d="M24.761 11.4044H12.9937V0.00610352H24.761V11.4044Z" fill="#80CC28"/>
<path d="M11.7672 23.9939H0V12.5957H11.7672V23.9939Z" fill="#00ADEF"/>
<path d="M24.761 23.9939H12.9937V12.5957H24.761V23.9939Z" fill="#FBBC09"/>
</g>
<defs>
<clipPath id="clip0_1_958">
<rect width="116" height="24" fill="white"/>
</clipPath>
</defs>
</svg>
