<svg width="105" height="22" viewBox="0 0 105 22" fill="none" xmlns="http://www.w3.org/2000/svg">
<g clip-path="url(#clip0_1_936)">
<rect width="105" height="22" fill="white"/>
<path d="M11.5609 0.0957031C5.20031 0.0957031 0.0512695 4.97396 0.0512695 11.0001C0.0512695 17.0261 5.20031 21.9044 11.5609 21.9044C17.9215 21.9044 23.0705 17.0261 23.0705 11.0001C23.0705 4.97396 17.9215 0.0957031 11.5609 0.0957031ZM11.5609 19.3058C6.71474 19.3058 2.79406 15.5914 2.79406 11.0001C2.79406 6.40875 6.71474 2.69425 11.5609 2.69425C16.4071 2.69425 20.3277 6.40875 20.3277 11.0001C20.3277 15.5914 16.4071 19.3058 11.5609 19.3058Z" fill="#2456A6"/>
<path d="M16.5587 8.17787C16.4914 8.05034 16.3399 7.98657 16.2053 7.98657H6.93366C6.74856 7.98657 6.58029 8.09816 6.52981 8.27353C6.47933 8.44889 6.56347 8.62425 6.71491 8.71991L11.1572 11.2866V15.9895C11.1572 16.1648 11.2918 16.3243 11.4601 16.3721C11.4938 16.388 11.5274 16.388 11.5611 16.388C11.7125 16.388 11.8471 16.3083 11.9144 16.1967L16.5419 8.59237C16.6428 8.44889 16.6428 8.30541 16.5587 8.17787Z" fill="#2456A6"/>
<path d="M37.5745 14.0609C37.5745 15.129 37.1706 16.0377 36.3461 16.7869C35.5216 17.5362 34.5456 17.9188 33.4014 17.9188H32.8293C31.6682 17.9188 30.6754 17.5362 29.8509 16.7869C29.0264 16.0377 28.6226 15.113 28.6226 14.0609V7.46085C28.6226 6.39274 29.0264 5.49998 29.8509 4.75071C30.6754 4.00143 31.6682 3.63477 32.8293 3.63477H33.4014C34.5625 3.63477 35.5216 4.00143 36.3461 4.75071C37.1706 5.49998 37.5745 6.40868 37.5745 7.46085V14.0609ZM34.4447 7.87535C34.4447 6.98259 33.8221 6.31303 33.149 6.31303C32.4759 6.31303 31.8028 6.99853 31.8028 7.87535V13.7101C31.8028 14.6029 32.4591 15.2406 33.149 15.2406C33.8726 15.2406 34.4447 14.6029 34.4447 13.7101V7.87535Z" fill="#2456A6"/>
<path d="M48.8482 8.41716C48.8482 9.48527 48.4443 10.378 47.6366 11.1273C46.8457 11.8766 45.853 12.2432 44.7087 12.2432H43.4131C43.2448 12.2432 43.1775 12.307 43.1775 12.4664V17.0577C43.1775 17.4244 42.8241 17.7432 42.4034 17.7432H40.8217C40.401 17.7432 40.0981 17.4244 40.0981 17.0577V4.49542C40.0981 4.06499 40.3337 3.8418 40.8217 3.8418H44.6919C45.853 3.8418 46.8457 4.22441 47.6198 4.97368C48.4275 5.72296 48.8313 6.63165 48.8313 7.68383V8.41716H48.8482ZM45.752 7.49252C45.752 6.88672 45.1799 6.39252 44.5068 6.39252H43.4972C43.3121 6.39252 43.228 6.45629 43.228 6.58382V9.5331C43.228 9.67658 43.3121 9.74035 43.4972 9.74035H44.5068C45.1799 9.74035 45.752 9.2302 45.752 8.62441V7.49252Z" fill="#2456A6"/>
<path d="M58.9964 17.0103C58.9964 17.377 58.6263 17.7277 58.2056 17.7277H51.9964C51.5758 17.7277 51.2056 17.377 51.2056 17.0103V4.52769C51.2056 4.12914 51.5421 3.8103 51.9964 3.8103H58.0205C58.4412 3.8103 58.8114 4.12914 58.8114 4.52769V5.7074C58.8114 6.07407 58.4412 6.42479 58.0205 6.42479H54.5541C54.369 6.42479 54.2849 6.48857 54.2849 6.64799V8.94364C54.2849 9.08712 54.369 9.15088 54.5541 9.15088H57.1791C57.5998 9.15088 57.97 9.46972 57.97 9.86827V11.0161C57.97 11.3828 57.5998 11.7335 57.1791 11.7335H54.5541C54.369 11.7335 54.2849 11.8132 54.2849 11.9726V14.8103C54.2849 14.9697 54.369 15.0494 54.5541 15.0494H58.2056C58.6263 15.0494 58.9964 15.4002 58.9964 15.7668V17.0103Z" fill="#2456A6"/>
<path d="M70.6393 17.0422C70.6393 17.4089 70.3028 17.7277 69.8821 17.7277H68.4518C68.1153 17.7277 67.8629 17.5364 67.6778 17.1697L64.3966 10.4422V17.0422C64.3966 17.4089 64.0432 17.7277 63.6225 17.7277H62.1249C61.7043 17.7277 61.4014 17.4089 61.4014 17.0422V4.51175C61.4014 4.1132 61.6874 3.8103 62.1249 3.8103H63.6225C64.0095 3.8103 64.2788 4.01755 64.4807 4.4161L67.661 10.9045V4.52769C67.661 4.12914 68.0312 3.8103 68.4518 3.8103H69.8821C70.3028 3.8103 70.6393 4.12914 70.6393 4.52769V17.0422Z" fill="#2456A6"/>
<path d="M82.0819 17.0101C82.0819 17.3768 81.7453 17.7275 81.3078 17.7275H81.0386C80.6852 17.7275 80.3992 17.4565 80.1804 16.8985C80.1804 16.9145 80.1804 16.9304 80.1636 16.9464C79.6251 17.584 78.8679 17.9188 77.8751 17.9188H77.5386C76.2429 17.9188 75.1828 17.5203 74.392 16.7391C73.6011 15.958 73.1973 15.0014 73.1973 13.8695V7.63622C73.1973 6.53622 73.6179 5.59564 74.4593 4.81448C75.3175 4.03332 76.3439 3.63477 77.5386 3.63477H77.7069C78.9016 3.63477 79.928 4.03332 80.7526 4.81448C81.5939 5.59564 82.0146 6.53622 82.0146 7.63622V8.19419C82.0146 8.59274 81.6612 8.91158 81.2405 8.91158H79.8271C79.4064 8.91158 79.0362 8.52897 79.0362 8.19419V8.00289C79.0362 7.07825 78.38 6.34491 77.6564 6.34491C76.916 6.34491 76.2766 7.07825 76.2766 8.00289V13.5985C76.2766 14.5869 76.7982 15.2087 77.6564 15.2087C78.5651 15.2087 79.0362 14.6666 79.0362 13.5985V13.0406C79.0362 12.8811 78.9521 12.8174 78.7838 12.8174H78.0266C77.6396 12.8174 77.2357 12.4826 77.2357 12.084V11.1753C77.2357 10.8087 77.5891 10.458 78.0266 10.458H81.3078C81.7453 10.458 82.0819 10.8406 82.0819 11.1753V17.0101Z" fill="#2456A6"/>
<path d="M93.5564 14.0609C93.5564 15.129 93.1526 16.0377 92.3281 16.7869C91.5035 17.5362 90.5276 17.9188 89.3834 17.9188H88.8112C87.6502 17.9188 86.6574 17.5362 85.8329 16.7869C85.0083 16.0377 84.6045 15.113 84.6045 14.0609V7.46085C84.6045 6.39274 85.0083 5.49998 85.8329 4.75071C86.6574 4.00143 87.6502 3.63477 88.8112 3.63477H89.3834C90.5444 3.63477 91.5035 4.00143 92.3281 4.75071C93.1526 5.49998 93.5564 6.40868 93.5564 7.46085V14.0609ZM90.4098 7.87535C90.4098 6.98259 89.7872 6.31303 89.1141 6.31303C88.441 6.31303 87.768 6.99853 87.768 7.87535V13.7101C87.768 14.6029 88.4242 15.2406 89.1141 15.2406C89.8377 15.2406 90.4098 14.6029 90.4098 13.7101V7.87535Z" fill="#2456A6"/>
<path d="M102.156 17.0902C102.072 17.5206 101.802 17.7279 101.382 17.7279H99.1942C98.8072 17.7279 98.5548 17.5206 98.4538 17.0902L95.6101 4.63946C95.5933 4.59163 95.5933 4.51192 95.5933 4.4641C95.5933 4.03366 95.812 3.82642 96.2327 3.82642H97.7639C98.1846 3.82642 98.4202 4.01772 98.5212 4.38439L100.322 12.7061L102.088 4.38439C102.173 4.01772 102.442 3.82642 102.862 3.82642H104.377C104.798 3.82642 105 4.01772 105 4.40033C105 4.4641 104.983 4.55975 104.966 4.63946L102.156 17.0902Z" fill="#2456A6"/>
</g>
<defs>
<clipPath id="clip0_1_936">
<rect width="105" height="22" fill="white"/>
</clipPath>
</defs>
</svg>
