<svg width="32" height="32" viewBox="0 0 32 32" fill="none" xmlns="http://www.w3.org/2000/svg">
<path d="M21.854 6.01599C21.7183 5.02408 21.3285 4.08406 20.7226 3.28708C20.1167 2.4901 19.3151 1.86321 18.3956 1.46717C17.4761 1.07114 16.4699 0.919404 15.4745 1.02668C14.4791 1.13396 13.5283 1.49661 12.7143 2.07947C11.9003 2.66232 11.2507 3.44562 10.8286 4.3534C10.4064 5.26118 10.2259 6.26265 10.3046 7.2607C10.3834 8.25876 10.7186 9.21954 11.278 10.0499C11.8373 10.8802 12.6017 11.552 13.497 12L13.003 12.9275C12.9618 13.0052 12.9415 13.0923 12.9438 13.1802C12.9462 13.2681 12.9712 13.354 13.0165 13.4294C13.0617 13.5048 13.1257 13.5673 13.2021 13.6107C13.2786 13.6542 13.365 13.6772 13.453 13.6775H18.547C18.6301 13.6768 18.7119 13.6559 18.7852 13.6166C18.8585 13.5773 18.9211 13.5208 18.9677 13.4519C19.0144 13.3831 19.0436 13.3039 19.0528 13.2213C19.0621 13.1386 19.0512 13.055 19.021 12.9775L18.6435 12.0245C19.7425 11.4878 20.6443 10.6183 21.2207 9.5396C21.7971 8.46088 22.0187 7.22789 21.854 6.01599ZM14.4705 3.48349C14.5714 3.48339 14.6701 3.51323 14.754 3.56923C14.838 3.62523 14.9034 3.70488 14.9421 3.79809C14.9807 3.8913 14.9909 3.99389 14.9712 4.09286C14.9515 4.19184 14.903 4.28276 14.8316 4.35411C14.7602 4.42547 14.6693 4.47405 14.5704 4.49371C14.4714 4.51338 14.3688 4.50323 14.2756 4.46457C14.1824 4.42591 14.1027 4.36046 14.0467 4.27652C13.9907 4.19257 13.9609 4.0939 13.961 3.99299C13.9615 3.85802 14.0154 3.72874 14.1108 3.6333C14.2062 3.53786 14.3355 3.48402 14.4705 3.48349ZM17.528 9.08899H16.5085V12.656H15.4895V9.08899H14.4705C14.3354 9.08899 14.2058 9.03531 14.1102 8.93976C14.0147 8.84421 13.961 8.71462 13.961 8.57949C13.961 8.44436 14.0147 8.31477 14.1102 8.21922C14.2058 8.12367 14.3354 8.06999 14.4705 8.06999H17.528C17.6631 8.06999 17.7927 8.12367 17.8882 8.21922C17.9838 8.31477 18.0375 8.44436 18.0375 8.57949C18.0375 8.71462 17.9838 8.84421 17.8882 8.93976C17.7927 9.03531 17.6631 9.08899 17.528 9.08899ZM19.393 6.85699H19.3265C19.2038 6.85689 19.0852 6.81255 18.9925 6.7321C18.8999 6.65165 18.8393 6.54048 18.822 6.41899C18.7364 5.8191 18.4554 5.26418 18.0224 4.84029C17.5893 4.4164 17.0286 4.14722 16.427 4.07449C16.2926 4.05842 16.1701 3.99004 16.0858 3.88418C16.0016 3.77831 15.9625 3.6435 15.977 3.50899C15.9842 3.44213 16.0047 3.37738 16.0371 3.31848C16.0696 3.25958 16.1134 3.2077 16.1661 3.16585C16.2187 3.124 16.2791 3.093 16.3438 3.07466C16.4085 3.05632 16.4762 3.05099 16.543 3.05899C17.3685 3.16013 18.1378 3.53038 18.7318 4.11249C19.3258 4.6946 19.7116 5.45617 19.8295 6.27949C19.8389 6.34608 19.835 6.41388 19.8181 6.47898C19.8012 6.54408 19.7717 6.60521 19.7311 6.65886C19.6906 6.71251 19.6398 6.75763 19.5818 6.79163C19.5238 6.82563 19.4596 6.84784 19.393 6.85699Z" fill="#0070F0" fill-opacity="0.9"/>
<path d="M20.5445 21.879C20.4449 21.8798 20.3473 21.8512 20.2639 21.7969C20.1805 21.7425 20.115 21.6648 20.0755 21.5735L18.6905 18.6305C18.6808 18.6099 18.6644 18.5932 18.644 18.5832C18.6236 18.5732 18.6004 18.5704 18.5782 18.5754C18.556 18.5803 18.5362 18.5927 18.5219 18.6104C18.5077 18.6282 18.5 18.6502 18.5 18.673V29.9765L17.5 29.9865V18.7365C17.4999 18.7145 17.4926 18.6931 17.4793 18.6757C17.4659 18.6583 17.4471 18.6457 17.4259 18.64C17.4046 18.6344 17.3821 18.6358 17.3618 18.6442C17.3415 18.6526 17.3245 18.6674 17.3135 18.6865L15.6135 21.6365C15.5671 21.7111 15.5026 21.7727 15.4259 21.8154C15.3491 21.8582 15.2628 21.8808 15.175 21.881H4.12097V30.4605C4.12137 30.5955 4.17517 30.7248 4.27064 30.8203C4.3661 30.9158 4.49547 30.9696 4.63047 30.97H27.933C28.068 30.9696 28.1974 30.9158 28.293 30.8203C28.3885 30.7249 28.4424 30.5955 28.443 30.4605V21.879H20.5445ZM11.9225 28.2C11.9225 28.2334 11.9159 28.2666 11.903 28.2975C11.8902 28.3284 11.8714 28.3565 11.8478 28.3801C11.8241 28.4037 11.796 28.4225 11.765 28.4352C11.7341 28.448 11.7009 28.4545 11.6675 28.4545H8.09997C8.03247 28.4545 7.96774 28.4276 7.92001 28.3799C7.87228 28.3322 7.84547 28.2675 7.84547 28.2V26.669C7.84547 26.6015 7.87228 26.5367 7.92001 26.489C7.96774 26.4413 8.03247 26.4145 8.09997 26.4145H11.667C11.7004 26.4144 11.7336 26.4209 11.7645 26.4337C11.7955 26.4464 11.8236 26.4652 11.8473 26.4888C11.8709 26.5125 11.8897 26.5405 11.9025 26.5714C11.9154 26.6024 11.922 26.6355 11.922 26.669L11.9225 28.2ZM20.0755 25.905H21.6045C21.7396 25.905 21.8692 25.9586 21.9647 26.0542C22.0603 26.1497 22.114 26.2793 22.114 26.4145C22.114 26.5496 22.0603 26.6792 21.9647 26.7747C21.8692 26.8703 21.7396 26.924 21.6045 26.924H20.0755C19.9403 26.924 19.8107 26.8703 19.7152 26.7747C19.6196 26.6792 19.566 26.5496 19.566 26.4145C19.566 26.2793 19.6196 26.1497 19.7152 26.0542C19.8107 25.9586 19.9403 25.905 20.0755 25.905ZM22.6255 28.9625H20.0755C19.943 28.9583 19.8174 28.9028 19.7252 28.8076C19.633 28.7125 19.5814 28.5852 19.5814 28.4527C19.5814 28.3202 19.633 28.1929 19.7252 28.0978C19.8174 28.0026 19.943 27.9471 20.0755 27.943H22.6255C22.7579 27.9471 22.8835 28.0026 22.9757 28.0978C23.0679 28.1929 23.1195 28.3202 23.1195 28.4527C23.1195 28.5852 23.0679 28.7125 22.9757 28.8076C22.8835 28.9028 22.7579 28.9583 22.6255 28.9625Z" fill="#0070F0" fill-opacity="0.9"/>
<path d="M26.1904 8.06998H23.6404C23.508 8.06583 23.3823 8.0103 23.2901 7.91516C23.1979 7.82002 23.1464 7.69272 23.1464 7.56023C23.1464 7.42773 23.1979 7.30044 23.2901 7.20529C23.3823 7.11015 23.508 7.05462 23.6404 7.05048H26.1904C26.3228 7.05462 26.4484 7.11015 26.5407 7.20529C26.6329 7.30044 26.6844 7.42773 26.6844 7.56023C26.6844 7.69272 26.6329 7.82002 26.5407 7.91516C26.4484 8.0103 26.3228 8.06583 26.1904 8.06998Z" fill="#0070F0" fill-opacity="0.9"/>
<path d="M23.5064 4.89398C23.4057 4.89383 23.3073 4.86386 23.2236 4.80784C23.1399 4.75182 23.0746 4.67227 23.036 4.57921C22.9975 4.48616 22.9873 4.38376 23.0069 4.28495C23.0265 4.18614 23.0748 4.09533 23.1459 4.02398L24.9459 2.22398C25.0418 2.13013 25.1709 2.0779 25.305 2.07862C25.4392 2.07934 25.5677 2.13296 25.6626 2.22784C25.7574 2.32272 25.8111 2.45119 25.8118 2.58537C25.8125 2.71954 25.7603 2.84859 25.6664 2.94448L23.8664 4.74448C23.8192 4.79188 23.7631 4.82948 23.7014 4.85514C23.6396 4.88079 23.5733 4.89399 23.5064 4.89398Z" fill="#0070F0" fill-opacity="0.9"/>
<path d="M25.3074 13.047C25.2405 13.047 25.1742 13.0337 25.1125 13.008C25.0507 12.9822 24.9946 12.9445 24.9474 12.897L23.1474 11.097C23.0536 11.0011 23.0014 10.8721 23.0021 10.7379C23.0028 10.6037 23.0564 10.4752 23.1513 10.3804C23.2462 10.2855 23.3747 10.2319 23.5088 10.2311C23.643 10.2304 23.7721 10.2827 23.8679 10.3765L25.6679 12.1765C25.7393 12.2478 25.7879 12.3386 25.8076 12.4375C25.8273 12.5364 25.8172 12.6389 25.7786 12.7321C25.74 12.8252 25.6746 12.9048 25.5907 12.9608C25.5069 13.0168 25.4083 13.0466 25.3074 13.0465V13.047Z" fill="#0070F0" fill-opacity="0.9"/>
<path d="M8.35543 8.06998H5.80543C5.673 8.06583 5.54739 8.0103 5.45518 7.91516C5.36297 7.82002 5.3114 7.69272 5.3114 7.56023C5.3114 7.42773 5.36297 7.30044 5.45518 7.20529C5.54739 7.11015 5.673 7.05462 5.80543 7.05048H8.35543C8.48787 7.05462 8.61348 7.11015 8.70569 7.20529C8.7979 7.30044 8.84947 7.42773 8.84947 7.56023C8.84947 7.69272 8.7979 7.82002 8.70569 7.91516C8.61348 8.0103 8.48787 8.06583 8.35543 8.06998Z" fill="#0070F0" fill-opacity="0.9"/>
<path d="M8.49197 4.89398C8.42496 4.89396 8.35861 4.8807 8.29674 4.85496C8.23488 4.82922 8.17871 4.7915 8.13147 4.74398L6.33146 2.94398C6.2418 2.84749 6.19299 2.72004 6.19527 2.58834C6.19754 2.45665 6.25073 2.33096 6.34367 2.23763C6.43661 2.1443 6.56208 2.09059 6.69377 2.08776C6.82545 2.08494 6.95311 2.13322 7.04996 2.22248L8.84997 4.02248C8.92104 4.0938 8.96941 4.18456 8.98899 4.28332C9.00856 4.38209 8.99847 4.48444 8.95997 4.57748C8.92147 4.67051 8.8563 4.75007 8.77266 4.80613C8.68902 4.86219 8.59065 4.89223 8.48997 4.89248L8.49197 4.89398Z" fill="#0070F0" fill-opacity="0.9"/>
<path d="M6.69038 13.047C6.58954 13.0471 6.49095 13.0173 6.40708 12.9613C6.3232 12.9053 6.25783 12.8257 6.21923 12.7325C6.18063 12.6394 6.17054 12.5369 6.19024 12.438C6.20993 12.3391 6.25853 12.2483 6.32988 12.177L8.12988 10.377C8.22672 10.2888 8.35381 10.2413 8.48477 10.2443C8.61573 10.2473 8.74049 10.3007 8.83315 10.3932C8.92581 10.4858 8.97924 10.6106 8.98236 10.7415C8.98548 10.8725 8.93803 10.9996 8.84988 11.0965L7.04988 12.8965C7.00285 12.9441 6.94687 12.9819 6.88517 13.0077C6.82347 13.0335 6.75727 13.0469 6.69038 13.047Z" fill="#0070F0" fill-opacity="0.9"/>
<path d="M28.9675 16.0445C28.9276 15.9552 28.8627 15.8793 28.7806 15.826C28.6985 15.7728 28.6028 15.7445 28.505 15.7445H19.0549V15.1C19.04 14.979 18.9784 14.8686 18.8832 14.7923C18.788 14.7161 18.6668 14.6801 18.5454 14.692H13.4499C13.3286 14.6801 13.2074 14.7161 13.1122 14.7923C13.017 14.8686 12.9554 14.979 12.9404 15.1V15.742H4.31944C4.23167 15.7422 4.1454 15.7647 4.06877 15.8075C3.99213 15.8503 3.92766 15.9119 3.88144 15.9865L1.16494 20.4735C1.14167 20.5121 1.12908 20.5563 1.12844 20.6014C1.12781 20.6465 1.13915 20.691 1.16131 20.7303C1.18348 20.7696 1.21567 20.8023 1.2546 20.8251C1.29354 20.8478 1.33783 20.8599 1.38294 20.86H14.7444C14.7883 20.86 14.8314 20.8487 14.8696 20.8271C14.9078 20.8056 14.9398 20.7745 14.9624 20.737L17.2904 16.887C17.3131 16.8495 17.3451 16.8184 17.3833 16.7969C17.4215 16.7753 17.4646 16.764 17.5084 16.764H18.9154C18.9647 16.7639 19.0129 16.778 19.0543 16.8046C19.0957 16.8312 19.1286 16.8692 19.149 16.914L20.809 20.706C20.8292 20.7509 20.8621 20.7889 20.9035 20.8155C20.9449 20.8421 20.9932 20.8562 21.0424 20.856H30.716C30.7582 20.8561 30.7999 20.8457 30.8371 20.8256C30.8744 20.8056 30.906 20.7766 30.9292 20.7413C30.9525 20.7059 30.9665 20.6654 30.9701 20.6232C30.9738 20.5811 30.9668 20.5388 30.95 20.5L28.9675 16.0445Z" fill="#0070F0" fill-opacity="0.9"/>
</svg>
