<svg width="88" height="40" viewBox="0 0 88 40" fill="none" xmlns="http://www.w3.org/2000/svg">
<g clip-path="url(#clip0_1_875)">
<rect width="88" height="40" fill="white"/>
<path d="M23.3247 18.7913C20.1912 18.7913 19.9423 16.3585 19.9423 15.6421C19.9423 14.7913 20.1327 13.2092 22.1679 12.4481C24.2032 11.6869 24.6425 11.5973 26.0921 11.1346V10.7764C26.0921 10.06 26.0921 9.92566 25.931 9.46298C25.6821 8.64208 24.8914 8.08984 23.7932 8.08984C22.7536 8.08984 21.8605 8.68686 21.4505 9.56746L20.8648 9.20924C21.2162 7.89581 22.5486 6.58238 24.8328 6.58238C26.4142 6.58238 27.5124 7.04507 28.1566 8.05999C28.6398 8.88089 28.6984 9.98536 28.6984 11.1048C28.6984 12.1197 28.6398 13.2391 28.6398 14.1495C28.6398 14.7466 28.5813 15.3286 28.5813 15.657C28.5813 16.4779 28.7423 17.1346 29.3866 17.1346C29.6794 17.1346 29.738 17.0301 29.9723 16.8809L30.3237 17.3436C29.738 18.1645 29.0352 18.8212 27.8784 18.8212C26.9852 18.8212 26.341 18.3585 26.0774 17.6122C25.7114 18.1346 24.7596 18.7913 23.3247 18.7913ZM26.0921 12.5973C24.5546 13.06 23.9982 13.3137 23.559 13.5525C22.8561 13.9107 22.5633 14.5675 22.5633 15.4182C22.5633 16.0749 22.8122 17.1346 24.3057 17.1346C24.7889 17.1346 25.4917 17.0301 26.136 16.5824V12.5824H26.0921V12.5973ZM0.219195 18.1645C0.219195 16.9854 0.219195 15.9854 0.116699 14.7764H0.819528C0.819528 15.5376 1.00988 16.0898 1.36129 16.4481C1.84449 17.0003 3.00122 17.3585 4.04083 17.3585C6.22252 17.3585 7.26212 16.5078 7.26212 14.6719C7.26212 13.1048 6.32502 12.4481 5.0365 11.5227L4.84615 11.3585L3.45513 10.4033C1.52236 9.08984 0.526683 8.07492 0.526683 6.00029C0.526683 4.98536 0.922024 1.64208 5.73933 1.64208C6.98392 1.64208 8.56528 1.80626 9.51703 1.94059C9.51703 2.10477 9.45846 2.85104 9.45846 3.50775C9.45846 4.26895 9.45846 4.46298 9.51703 5.37342H8.93134C8.93134 4.55253 8.68242 4.05999 8.34565 3.70178C7.89174 3.2391 6.86678 2.98537 5.76861 2.98537C3.19157 2.98537 2.89873 4.2988 2.89873 5.31372C2.89873 6.68686 3.60156 7.17939 5.12435 8.19432L6.86678 9.37343C8.34565 10.3884 9.73666 11.3436 9.73666 13.8809C9.73666 18.1346 5.81254 18.5824 4.17261 18.5824C2.66445 18.7913 1.40522 18.5675 0.219195 18.1645ZM31.4072 7.34357C31.9929 7.40328 32.8861 7.34358 33.75 7.1794C34.4967 7.01522 34.7457 6.92566 35.2874 6.68686L35.5363 6.85104V7.76148C36.122 7.2988 37.2788 6.64208 38.9187 6.64208C41.0125 6.64208 42.3596 7.65701 42.7403 9.43313C42.8428 9.89581 42.9014 10.9406 42.9014 11.5675V15.0152C42.9014 16.9406 43.0039 17.5078 43.3553 17.851C43.5457 18.0152 43.941 18.2092 44.512 18.2092V18.7615C43.7653 18.7018 42.4182 18.657 41.6422 18.657C40.6026 18.657 39.4165 18.7167 38.7723 18.7615V18.2092C39.358 18.1495 39.7094 17.9555 39.929 17.8063C40.2804 17.448 40.3244 16.7913 40.3829 15.3137C40.3829 14.851 40.4415 13.9406 40.4415 13.2839C40.4415 12.4331 40.4415 11.5078 40.339 10.5973C40.1779 9.08984 39.4019 8.37343 37.8937 8.37343C36.8541 8.37343 36.2099 8.62716 35.712 8.86596V15.0451C35.712 16.9704 35.8145 17.5376 36.166 17.8809C36.3563 18.0451 36.8102 18.2391 37.2641 18.2391V18.7913C36.327 18.7316 35.1703 18.6869 34.4382 18.6869C32.9007 18.6869 32.4029 18.7466 31.5097 18.7913V18.2092C31.9929 18.2092 32.5054 18.0152 32.7543 17.7167C33.1057 17.3137 33.1496 16.2988 33.1496 14.3286V10.8212C33.1496 9.34357 33.0911 8.74656 32.9007 8.43313C32.7397 8.17939 32.359 7.97044 31.5536 7.97044V7.31372H31.4511V7.34357H31.4072ZM45.7713 18.1346C46.2545 18.1346 46.7669 17.9704 47.0159 17.6421C47.3673 17.2391 47.4112 16.2242 47.4112 14.254V8.3585H45.9323V7.70178C46.5766 7.44805 47.1184 7.14955 47.4112 6.88089C47.4112 5.82119 47.4698 4.49283 47.6016 3.73163C48.0555 1.2988 49.5929 0.0898438 52.2139 0.0898438C53.3706 0.0898438 54.4395 0.492828 55.1423 1.04507L55.2009 1.2988L54.0442 2.91074H53.7513C53.356 1.95551 52.7556 1.40327 51.716 1.40327C51.3646 1.40327 50.8814 1.50775 50.5593 1.80626C50.0761 2.2988 49.9736 3.07492 49.9736 4.59731V6.86596H52.5506V8.34357H49.9736V14.8809C49.9736 16.4481 50.0322 17.2092 50.2225 17.5078C50.5154 18.0003 51.5696 18.06 52.0528 18.06V18.657C51.2182 18.5973 49.8711 18.5525 48.9194 18.5525C47.4698 18.5525 46.5327 18.6122 45.7859 18.657L45.7713 18.1346ZM59.0811 18.8809C55.5669 18.8809 53.4731 16.657 53.4731 12.9107C53.4731 9.98536 55.0105 6.58238 59.33 6.58238C62.8442 6.58238 64.938 8.80626 64.938 12.5525C64.938 15.4779 63.3859 18.8809 59.0811 18.8809ZM59.2275 7.94059C58.5247 7.94059 57.9829 8.13462 57.5876 8.49283C56.6505 9.31372 56.1966 10.7167 56.1966 12.7913C56.1966 13.6122 56.3576 17.5525 59.1836 17.5525C59.8864 17.5525 60.4282 17.3585 60.8235 17.0003C61.7606 16.1794 62.2145 14.7764 62.2145 12.7018C62.1999 11.8958 62.0681 7.94059 59.2275 7.94059ZM66.124 7.28387C66.9293 7.34357 67.764 7.22417 68.6571 7.08984C69.36 6.98536 69.8139 6.83611 70.0481 6.68686L70.2385 6.79134V7.80626C70.7803 7.25402 71.6881 6.68686 72.918 6.68686C73.8112 6.68686 74.3969 6.94059 74.9533 7.40328V7.76148L73.9576 9.59731H73.4744C73.1816 9.04507 72.5813 8.5376 71.5417 8.5376C71.0585 8.5376 70.6485 8.64208 70.2971 8.89581V14.9257C70.2971 16.4928 70.3556 17.1943 70.546 17.5078C70.8388 18.0003 71.8345 18.06 72.3763 18.0003V18.657C71.5709 18.5973 70.1946 18.5525 69.2428 18.5525C68.1447 18.5525 67.0172 18.5525 66.1094 18.657V18.06C66.7536 18.0003 67.105 17.866 67.354 17.5675C67.7054 17.1645 67.7493 16.1943 67.7493 14.1794V10.8958C67.7493 9.4182 67.7493 8.82119 67.5004 8.50775C67.31 8.25402 66.9147 8.10477 66.1533 8.10477V7.34357L66.124 7.28387ZM82.3769 0.80626C83.0798 0.80626 83.9583 0.642082 85.115 0.448052C85.7593 0.343574 86.1546 0.19432 86.3596 0.149544L86.55 0.254021C86.4475 1.20925 86.4475 3.40328 86.4475 4.95551V14.5675C86.4475 15.9854 86.4475 16.8958 86.6378 17.1943C86.8282 17.4481 87.2235 17.657 87.9849 17.657V18.254C87.2382 18.254 86.4036 18.3585 85.5104 18.5078C84.9247 18.6122 84.4708 18.7018 84.2219 18.8063L83.929 18.7018V17.6869C83.3433 18.1495 82.2452 18.8063 80.7077 18.8063C77.5303 18.8063 75.4951 16.5824 75.4951 13.0898C75.4951 11.9107 75.6854 10.866 76.0808 9.89581C77.0764 7.76148 79.0678 6.55253 81.5863 6.55253C82.5234 6.55253 83.3287 6.65701 83.8119 6.74656V4.25402C83.8119 2.77641 83.8119 2.03014 83.563 1.67193C83.4019 1.4182 83.1676 1.31372 82.3184 1.26895V0.791336H82.3769V0.80626ZM81.9669 17.1495C82.7723 17.1495 83.314 17.0451 83.8558 16.6869V8.80626C83.6655 8.61223 82.9626 7.98536 81.5716 7.98536C79.346 7.98536 78.2478 9.55253 78.2478 12.8063C78.2039 14.1645 78.5992 17.1495 81.9669 17.1495ZM18.8002 17.5078C18.4488 17.9704 17.5556 18.8809 15.6668 18.8809C13.8658 18.8809 12.8848 18.2242 12.4455 16.7466C12.2551 16.1943 12.2551 15.0301 12.2551 14.3585C12.2551 12.4928 12.2551 10.9704 12.3137 9.19432V8.37343H10.7616V7.91074C11.3473 7.65701 11.8012 7.4182 12.2112 7.08984C13.1044 6.37342 13.6901 5.52268 14.349 4.25402H14.8322V6.88089H18.7563V8.3585H14.8322V14.5376C14.8322 16.4033 15.1836 17.4182 16.8674 17.4182C17.6728 17.4182 18.2145 17.1645 18.5074 16.9555L18.8002 17.5078Z" fill="#8C1515"/>
<path d="M73.84 28.5527C73.6497 28.5527 73.3861 28.6124 73.2544 28.7467C73.0933 28.8512 73.0933 29.0004 73.0933 29.1049C73.0933 29.2989 73.1519 29.4631 73.2836 29.8661L74.3818 32.7915C74.5429 33.2542 74.6747 33.6124 74.7332 33.8512L76.0803 29.8512C76.2414 29.3885 76.2707 29.2989 76.2707 29.09C76.2707 28.9855 76.2121 28.8959 76.1096 28.7915C75.9485 28.687 75.7582 28.5974 75.5239 28.5974V28.1348C75.685 28.1348 76.0071 28.1348 76.1682 28.1945C76.3292 28.1945 76.6221 28.2542 76.871 28.2542C77.3542 28.2542 78.057 28.1945 78.3499 28.1945V28.6571C78.1595 28.7168 77.7056 28.5974 77.3103 29.7765L74.4843 37.4631C74.089 38.5825 73.5472 39.9556 71.6144 39.9556C70.8091 39.9556 70.2673 39.7616 69.8134 39.3586V39.1646L70.5163 38.3139H70.7066C70.897 38.7765 71.2923 38.9706 71.8633 38.9706C72.7565 38.9706 73.1519 38.1497 73.7522 36.5377L73.9133 36.0751L71.5412 29.7616C71.5412 29.7019 71.4826 29.5974 71.4387 29.5079C71.3801 29.3437 71.2484 29.0452 71.2484 29.0452C71.0873 28.7467 70.853 28.6422 70.5455 28.6422V28.1795C70.9994 28.2392 71.7901 28.2392 72.1855 28.2392C72.4344 28.2392 72.8297 28.2392 73.2251 28.1795C73.4154 28.1795 73.7668 28.1198 73.9279 28.1198V28.5228H73.8693V28.5527H73.84ZM47.5425 28.4482C48.0257 28.5079 48.5821 28.3885 49.1239 28.284C49.5778 28.1795 49.8267 28.1198 50.0171 28.0303L50.1782 28.09V28.7467C50.5296 28.3885 51.0713 28.0303 51.862 28.0303C52.4477 28.0303 52.7991 28.1945 53.1505 28.493V28.7467L52.5648 29.9258H52.272C52.0816 29.5676 51.7302 29.2691 51.0274 29.2691C50.7346 29.2691 50.4856 29.3736 50.2221 29.5228V33.3288C50.2221 34.3437 50.2806 34.8064 50.3831 35.0004C50.5735 35.2989 51.1885 35.3586 51.5399 35.3586V35.7616C51.0567 35.7019 50.1489 35.7019 49.5485 35.7019C48.8457 35.7019 48.0989 35.7019 47.5572 35.8064V35.4034C47.9525 35.4034 48.2014 35.2392 48.3625 35.1049C48.6114 34.8512 48.6114 34.2542 48.6114 32.9258V30.7915C48.6114 29.881 48.6114 29.478 48.4504 29.284C48.3479 29.1198 48.055 29.0303 47.6158 29.0303V28.478H47.5425V28.4482ZM14.4803 35.7915C12.3865 35.7915 11.1565 35.1348 10.7026 33.7168C10.4537 33.0004 10.4537 32.1049 10.4537 31.3885V27.3437C10.4537 26.1348 10.3951 25.9258 10.1608 25.7318C10.0583 25.6273 9.80942 25.5377 9.45801 25.478V25.0751C9.9412 25.1348 10.8051 25.1795 11.2883 25.1795C12.1229 25.1795 12.6354 25.1795 13.1771 25.0751V25.5377C12.8257 25.5377 12.5915 25.6422 12.3718 25.8362C12.1229 26.09 12.1229 26.5527 12.1229 27.8661V31.4482C12.1229 33.5825 12.3132 34.9557 14.656 34.9557C17.0427 34.9557 17.1891 33.5377 17.1891 31.3736V27.4333C17.1891 26.2243 17.1306 26.0153 16.8963 25.8213C16.7352 25.7168 16.5009 25.6273 16.1935 25.5676V25.1646C16.6474 25.1646 17.2331 25.2243 17.8334 25.2243C18.3751 25.2243 18.9316 25.2243 19.5758 25.1198V25.5825C19.2244 25.5825 18.9901 25.687 18.7705 25.881C18.5216 26.1348 18.5216 26.5974 18.5216 27.9109V30.9556C18.5216 31.9109 18.5216 32.9855 18.2287 33.8362C17.7602 35.1348 16.5595 35.7915 14.4803 35.7915ZM28.6394 35.3288C29.0347 35.2691 29.2836 35.2243 29.474 35.0303C29.7229 34.7765 29.7229 34.1795 29.7229 32.8512V30.7168C29.7229 29.8064 29.7229 29.3437 29.5618 29.1497C29.4593 28.9855 29.269 28.8959 28.7272 28.8512V28.3885C29.0201 28.4482 29.8254 28.3288 30.4111 28.2243C30.7039 28.1646 30.9968 28.0601 31.2164 27.9706L31.3775 28.1348C31.3189 28.6273 31.3189 29.7019 31.3189 31.1198V33.2989C31.3189 34.3139 31.3775 34.7765 31.48 34.9706C31.641 35.1646 31.9339 35.3288 32.3732 35.3288V35.687C31.9778 35.6273 31.2164 35.6273 30.5722 35.6273C29.8254 35.6273 29.0347 35.687 28.6394 35.7318V35.3288ZM30.4697 26.6721C29.884 26.6721 29.5326 26.3139 29.5326 25.7616C29.5326 25.2094 29.9279 24.8064 30.5282 24.8064C31.1139 24.8064 31.4653 25.1646 31.4653 25.7168C31.4507 26.3139 31.0553 26.6721 30.4697 26.6721ZM60.0324 35.3288C60.4277 35.2691 60.6767 35.2243 60.867 35.0303C61.1159 34.7765 61.1159 34.1795 61.1159 32.8512V30.7168C61.1159 29.8064 61.1159 29.3437 60.9549 29.1497C60.8524 28.9855 60.662 28.8959 60.1202 28.8512V28.3885C60.4131 28.4482 61.2184 28.3288 61.8041 28.2243C62.097 28.1646 62.4484 28.0601 62.6094 27.9706L62.7705 28.1348C62.7119 28.6273 62.7119 29.7019 62.7119 31.1198V33.2989C62.7119 34.3139 62.7705 34.7765 62.873 34.9706C63.0341 35.1646 63.3269 35.3288 63.7662 35.3288V35.687C63.3123 35.6273 62.5801 35.6273 61.9359 35.6273C61.1891 35.6273 60.3984 35.687 60.0031 35.7318V35.3288H60.0324ZM61.8627 26.6721C61.277 26.6721 60.9256 26.3139 60.9256 25.7616C60.9256 25.2094 61.3209 24.8064 61.9212 24.8064C62.5069 24.8064 62.8583 25.1646 62.8583 25.7168C62.8583 26.3139 62.4484 26.6721 61.8627 26.6721ZM54.0144 35.4333C54.0144 34.6721 53.9559 33.8661 53.9119 33.4631H54.3951C54.3951 33.8661 54.4976 34.2243 54.688 34.4183C54.9808 34.7765 55.3322 34.9109 55.9765 34.9109H56.079C56.8843 34.9109 57.3236 34.5527 57.3236 33.8512C57.3236 33.2989 56.9722 33.0303 56.3865 32.6721L55.3469 32.0153C54.8051 31.6571 54.1608 31.1646 54.1608 30.09C54.1608 29.2392 54.5123 28.5825 55.2004 28.2243C55.6544 27.9706 56.3572 27.9706 56.6793 27.9706C57.265 27.9706 58.1289 28.0751 58.6121 28.1646C58.5535 28.3586 58.5535 28.881 58.5535 29.075C58.5535 29.2392 58.5535 29.9258 58.6121 30.09H58.1289C58.1289 29.7915 58.0264 29.493 57.8361 29.2392C57.6457 28.9855 57.1918 28.8362 56.65 28.8362C55.9033 28.8362 55.4933 29.1348 55.4933 29.7915C55.4933 30.284 55.8886 30.5527 56.24 30.8064H56.2986L57.2943 31.4034C57.9385 31.8064 58.7732 32.3139 58.7732 33.478C58.7732 35.4482 56.9722 35.7467 55.9472 35.7467C55.3615 35.7318 54.7172 35.687 54.0144 35.4333ZM69.6084 34.9407C69.3595 35.1945 68.8031 35.7915 67.6171 35.7915C66.4603 35.7915 65.8161 35.3885 65.5818 34.4183C65.4793 34.0601 65.4793 33.2989 65.4793 32.9109C65.4793 31.7019 65.4793 30.7318 65.4793 29.6273V29.1348H64.4836V28.8362C64.879 28.6721 65.1279 28.5377 65.4207 28.3437C65.9625 27.881 66.3578 27.3288 66.8118 26.5079H67.1632V28.1795H69.6377V29.09H67.1632V33.0303C67.1632 34.2094 67.3535 34.8959 68.4517 34.8959C68.9349 34.8959 69.2863 34.7318 69.4913 34.5974L69.6084 34.9407ZM36.0191 28.1497C35.858 28.1497 35.5359 28.1497 35.3162 28.2094C34.9209 28.2094 34.5109 28.2691 34.2181 28.2691C33.6763 28.2691 32.871 28.2094 32.6367 28.2094V28.6721C32.7392 28.6721 33.1199 28.6124 33.3835 29.1348C33.486 29.3288 33.5445 29.493 33.5738 29.5974C33.6324 29.7019 33.6763 29.7915 33.6763 29.8512L36.063 35.9258L36.8098 35.7616L39.4454 29.7915C39.4454 29.7318 39.5039 29.687 39.5479 29.5974C39.6064 29.5377 39.6064 29.4333 39.7968 29.1348C39.9578 28.8362 40.28 28.6721 40.5435 28.6721V28.2094C40.2507 28.2094 39.6064 28.2691 39.094 28.2691C38.845 28.2691 38.6108 28.2691 38.3472 28.2094C38.1568 28.2094 37.864 28.1497 37.6444 28.1497V28.5527C37.8933 28.5527 38.1276 28.6571 38.2301 28.7467C38.2886 28.8064 38.3911 28.9407 38.3911 29.0452C38.3911 29.2094 38.3326 29.3437 38.2008 29.8064L36.7512 33.3885C36.6926 33.1945 36.5901 32.8959 36.4583 32.478L35.4627 29.7915C35.3016 29.3885 35.2723 29.2392 35.2723 29.0303C35.2723 28.9258 35.2723 28.8362 35.3748 28.7765C35.5359 28.6124 35.7702 28.5228 36.0191 28.5228V28.1198V28.1497ZM19.7954 28.4482C20.1908 28.5079 20.7326 28.4482 21.2743 28.3437C21.7282 28.2392 21.9186 28.1795 22.27 28.0452L22.4311 28.1497V28.7467C22.7825 28.4482 23.5878 28.0303 24.5688 28.0303C25.9159 28.0303 26.7505 28.687 27.0141 29.8064C27.0727 30.1049 27.1166 30.7616 27.1166 31.1795V33.3586C27.1166 34.5676 27.1751 34.9258 27.4094 35.1945C27.5119 35.2989 27.8048 35.3885 28.1123 35.3885V35.7467C27.6291 35.7467 26.7652 35.687 26.282 35.687C25.5791 35.687 24.8324 35.7467 24.4517 35.7915V35.4333C24.8031 35.3736 25.0374 35.2691 25.1984 35.1795C25.3888 34.9855 25.4474 34.5228 25.4913 33.6124C25.4913 33.3139 25.4913 32.7616 25.4913 32.2989C25.4913 31.7467 25.4913 31.1198 25.4327 30.5825C25.3302 29.6273 24.847 29.1646 23.8953 29.1646C23.251 29.1646 22.7971 29.3288 22.5043 29.4631V33.4333C22.5043 34.6422 22.5628 35.0004 22.7971 35.2691C22.8996 35.3736 23.1925 35.4631 23.4999 35.4631V35.8213C22.8557 35.6571 22.1089 35.6571 21.6111 35.6571C20.6154 35.6571 20.3226 35.6571 19.7808 35.7616V35.4034C20.0737 35.4034 20.4251 35.2989 20.5861 35.1049C20.7765 34.8512 20.835 34.1945 20.835 32.9258V30.7915C20.835 29.881 20.835 29.478 20.674 29.284C20.5715 29.1198 20.3226 28.9855 19.8394 29.0303V28.4631H19.7954V28.4482ZM43.9259 35.7915C41.7003 35.7915 40.485 34.478 40.485 32.09C40.485 31.687 40.5875 27.9855 43.9552 27.9855C44.9509 27.9855 45.844 28.3885 46.2394 29.1049C46.6933 29.8213 46.7226 30.5228 46.7226 31.1348V31.5974H42.1103C42.1103 32.0004 42.1688 32.3139 42.2128 32.5527C42.4617 34.0303 43.2524 34.7318 44.658 34.7318C45.4633 34.7318 45.9465 34.5676 46.4004 34.2691L46.5908 34.6273C46.1222 35.2989 45.1266 35.7915 43.9259 35.7915ZM42.1395 30.7318H45.0094C45.0094 29.8213 44.8484 28.8064 43.5598 28.8064C42.4324 28.8661 42.1981 29.9556 42.1395 30.7318Z" fill="#8C1515"/>
</g>
<defs>
<clipPath id="clip0_1_875">
<rect width="88" height="40" fill="white"/>
</clipPath>
</defs>
</svg>
